<svg width="1900" height="980" xmlns="http://www.w3.org/2000/svg">
 <g>
  <title>background</title>
  <rect x="-1" y="-1" width="1902" height="982" id="canvas_background" fill="none"/>
 </g>

 <g>
  <title>Layer 1</title>
  <g opacity="0.29" id="svg_2">
   <path fill="#f0f5f9" d="m453.24529,416.69931c0,-11.6 -9.5,-21.1 -21.1,-21.1c-11.6,0 -21.1,9.5 -21.1,21.1c0,11.6 9.5,21.1 21.1,21.1c11.6,0 21.1,-9.4 21.1,-21.1zm-36.7,0c0,-8.6 7,-15.6 15.6,-15.6c8.6,0 15.6,7 15.6,15.6c0,8.6 -7,15.6 -15.6,15.6c-8.6,0.1 -15.6,-6.9 -15.6,-15.6z" id="svg_3"/>
   <path fill="#f0f5f9" d="m882.04529,-0.70069c-0.9,-0.9 -2.2,-1.8 -3.6,-2.6c-0.9,-0.5 -2,-1 -3.1,-1.5l0,-0.2l-13.2,0c0.8,0.8 1.8,1.5 2.9,2.2c1.3,0.8 2.9,1.6 4.8,2.3l0,13.3c-0.7,0 -1.4,-0.1 -2.2,-0.2c-0.9,-0.2 -1.8,-0.4 -2.7,-0.7c-0.8,-0.3 -1.9,-0.6 -2.2,-0.7c-1.4,-0.7 -3.9,0.3 -3.9,2.1l0,1c0,0.9 0.5,1.7 1.3,2.1c2.7,1.4 5.9,2.1 9.6,2.1c0.1,0 0.1,0 0.2,0l0,4.8c0,1.5 1.2,2.7 2.7,2.7c1.5,0 2.7,-1.2 2.7,-2.7l0,-5.5c0.1,0 0.2,0 0.3,-0.1c1.8,-0.5 3.5,-1.3 4.8,-2.3c1.4,-1 2.5,-2.3 3.3,-3.8c0.8,-1.5 1.2,-3.2 1.2,-5.1c0,-1.5 -0.2,-2.9 -0.7,-4.1c-0.5,-1.1 -1.2,-2.2 -2.2,-3.1zm-6.7,12.7l0,-9.9c0.3,0.2 0.7,0.4 1,0.7c0.7,0.6 1.2,1.2 1.6,1.8c0.4,0.6 0.5,1.4 0.5,2.3c0,2.5 -1,4.2 -3.1,5.1z" id="svg_4"/>
   <path fill="#f0f5f9" d="m906.14529,-5.00069c0.1,0.8 0.1,1.7 0.1,2.5c0,9 -3.4,17.5 -9.8,23.9c-6.4,6.4 -14.9,10 -24,10c-9,0 -17.4,-3.5 -23.8,-9.8c-6.4,-6.4 -10,-14.8 -10,-23.8c0,-0.9 0,-1.9 0.1,-2.8l-5.4,0c-0.7,11 3.1,22.2 11.5,30.5c7.4,7.3 17.2,11.4 27.6,11.4c10.5,0 20.4,-4.1 27.9,-11.6c7.4,-7.4 11.4,-17.3 11.4,-27.8c0,-0.8 0,-1.7 -0.1,-2.5l-5.5,0z" id="svg_5"/>
   <path fill="#f0f5f9" d="m898.94529,0.89931c-1.5,-0.1 -2.8,1.1 -2.9,2.6l0,0.6c-0.1,1.5 1,2.8 2.5,2.9c0.1,0 0.1,0 0.2,0c1.4,0 2.6,-1.1 2.7,-2.5c0,-0.2 0,-0.5 0,-0.7c0.2,-1.6 -1,-2.9 -2.5,-2.9z" id="svg_6"/>
   <path fill="#f0f5f9" d="m900.94529,-5.00069l-5.5,0c0.1,0.6 0.2,1.3 0.3,1.9c0.2,1.4 1.4,2.3 2.7,2.3c0.1,0 0.3,0 0.4,0c1.5,-0.2 2.5,-1.6 2.3,-3.1c0,-0.4 -0.1,-0.7 -0.2,-1.1z" id="svg_7"/>
   <path fill="#f0f5f9" d="m1306.84529,181.09931c2.7,1.4 5.9,2.1 9.6,2.1c0.1,0 0.1,0 0.2,0l0,4.8c0,1.5 1.2,2.7 2.7,2.7c1.5,0 2.7,-1.2 2.7,-2.7l0,-5.5c0.1,0 0.2,0 0.3,-0.1c1.8,-0.5 3.5,-1.3 4.8,-2.3c1.4,-1 2.5,-2.3 3.3,-3.8c0.8,-1.5 1.2,-3.2 1.2,-5.1c0,-1.5 -0.2,-2.9 -0.7,-4.1c-0.5,-1.2 -1.2,-2.3 -2.2,-3.2c-0.9,-0.9 -2.2,-1.8 -3.6,-2.6c-0.9,-0.5 -2,-1 -3.1,-1.5l0,-13.8c1.4,0.2 2.8,0.5 4.1,1c0.4,0.1 0.7,0.2 1.1,0.2c1.6,0 3,-1.3 3,-3c0,-1.2 -0.8,-2.3 -1.9,-2.8c-1.9,-0.7 -4,-1.1 -6.3,-1.3l0,-3.9c0,-1.5 -1.2,-2.7 -2.7,-2.7c-1.5,0 -2.7,1.2 -2.7,2.7l0,4.2c-0.6,0.1 -1.1,0.2 -1.7,0.4c-1.8,0.5 -3.3,1.3 -4.7,2.3c-1.4,1 -2.5,2.3 -3.3,3.7c-0.8,1.5 -1.2,3.2 -1.2,5c0,1.5 0.2,2.8 0.7,4c0.4,1.2 1.1,2.3 2,3.3c0.9,1 2,1.9 3.4,2.7c1.3,0.8 2.9,1.6 4.8,2.3l0,13.3c-0.7,0 -1.4,-0.1 -2.2,-0.2c-0.9,-0.2 -1.8,-0.4 -2.7,-0.7c-0.8,-0.3 -1.8,-0.6 -2.2,-0.7c-1.4,-0.7 -3.9,0.3 -3.9,2.1l0,1c0,1 0.5,1.8 1.2,2.2zm9.5,-23.8c-1,-0.5 -1.8,-1.1 -2.4,-1.6c-0.6,-0.5 -1,-1.1 -1.3,-1.8c-0.3,-0.7 -0.4,-1.4 -0.4,-2.3c0,-0.8 0.2,-1.6 0.5,-2.3c0.4,-0.7 0.9,-1.3 1.5,-1.8c0.6,-0.5 1.4,-0.9 2.4,-1.2l0,11.2c-0.1,-0.1 -0.2,-0.1 -0.3,-0.2zm5.8,9.5c0.3,0.2 0.7,0.4 1,0.7c0.7,0.6 1.2,1.2 1.6,1.8c0.4,0.6 0.5,1.4 0.5,2.3c0,2.5 -1,4.2 -3.1,5.1l0,-9.9z" id="svg_8"/>
   <path fill="#f0f5f9" d="m1319.24529,201.59931c10.5,0 20.4,-4.1 27.9,-11.6c7.4,-7.4 11.4,-17.3 11.4,-27.8c0,-10.5 -4.2,-20.3 -11.6,-27.7c-7.4,-7.3 -17.2,-11.4 -27.6,-11.4c-10.5,0 -20.4,4.1 -27.9,11.6c-15.2,15.4 -15.1,40.2 0.2,55.5c7.3,7.4 17.1,11.4 27.6,11.4zm-24,-63c6.4,-6.4 14.9,-10 24,-10c9,0 17.4,3.5 23.8,9.8c6.4,6.4 10,14.8 10,23.8c0,9 -3.4,17.5 -9.8,23.9c-6.4,6.4 -14.9,10 -24,10c-9,0 -17.4,-3.5 -23.8,-9.8c-13.2,-13 -13.3,-34.4 -0.2,-47.7z" id="svg_9"/>
   <path fill="#f0f5f9" d="m1345.74529,165.59931c-1.5,-0.1 -2.8,1.1 -2.9,2.6l0,0.6c-0.1,1.5 1,2.8 2.5,2.9c0.1,0 0.1,0 0.2,0c1.4,0 2.6,-1.1 2.7,-2.5l0,-0.7c0.1,-1.5 -1,-2.8 -2.5,-2.9z" id="svg_10"/>
   <path fill="#f0f5f9" d="m1340.24529,153.29931c1.1,2.6 1.9,5.4 2.3,8.3c0.2,1.4 1.4,2.3 2.7,2.3c0.1,0 0.3,0 0.4,0c1.5,-0.2 2.5,-1.6 2.3,-3.1c-0.5,-3.3 -1.4,-6.6 -2.7,-9.7c-1.9,-4.5 -4.7,-8.6 -8.2,-12.1c-1.1,-1.1 -2.8,-1.1 -3.9,0c-1.1,1.1 -1.1,2.8 0,3.9c3,3.1 5.4,6.6 7.1,10.4z" id="svg_11"/>
   <path fill="#f0f5f9" d="m1091.74529,350.69931c2,1 4.4,1.6 7.1,1.6l0,3.6c0,1.5 1.2,2.7 2.7,2.7s2.7,-1.2 2.7,-2.7l0,-4.3c1.3,-0.4 2.5,-1 3.5,-1.7c1.1,-0.8 2,-1.8 2.6,-3c0.6,-1.2 0.9,-2.6 0.9,-4.1c0,-1.2 -0.2,-2.3 -0.6,-3.2c-0.4,-0.9 -1,-1.8 -1.7,-2.6c-0.8,-0.7 -1.7,-1.4 -2.9,-2.1c-0.6,-0.3 -1.2,-0.6 -1.9,-1l0,-10.7c0.9,0.2 1.7,0.4 2.5,0.7c0.3,0.1 0.6,0.2 0.9,0.2c1.4,0 2.5,-1.1 2.5,-2.5c0,-1 -0.6,-1.9 -1.6,-2.3c-1.3,-0.5 -2.8,-0.8 -4.3,-1l0,-3c0,-1.5 -1.2,-2.7 -2.7,-2.7s-2.7,1.2 -2.7,2.7l0,3.3c-0.3,0.1 -0.5,0.1 -0.8,0.2c-1.4,0.4 -2.6,1 -3.7,1.8c-1.1,0.8 -2,1.8 -2.6,3c-0.7,1.2 -1,2.5 -1,4c0,1.2 0.2,2.2 0.5,3.2c0.4,0.9 0.9,1.8 1.6,2.6c0.7,0.8 1.6,1.5 2.7,2.1c0.9,0.5 2,1.1 3.2,1.6l0,10.3c-0.4,0 -0.7,-0.1 -1.1,-0.1c-0.7,-0.1 -1.4,-0.3 -2.1,-0.6c-0.6,-0.2 -1.5,-0.5 -1.7,-0.5c-1.2,-0.6 -3.3,0.2 -3.3,1.8l0,0.8c0.3,0.9 0.7,1.6 1.3,1.9zm5.7,-20.1c-0.4,-0.4 -0.8,-0.8 -1,-1.3c-0.2,-0.5 -0.3,-1.1 -0.3,-1.8c0,-0.6 0.1,-1.2 0.4,-1.7c0.3,-0.5 0.6,-1 1.1,-1.4c0.3,-0.3 0.7,-0.5 1.2,-0.7l0,7.8c-0.5,-0.2 -1,-0.6 -1.4,-0.9zm6.9,9.4c0,0 0,0 0,0c0.6,0.5 1,0.9 1.3,1.4c0.3,0.5 0.4,1.1 0.4,1.7c0,1.2 -0.2,2.6 -1.7,3.5l0,-6.6z" id="svg_12"/>
   <path fill="#f0f5f9" d="m1101.44529,367.19931c8.4,0 16.3,-3.3 22.2,-9.2c5.9,-5.9 9.1,-13.8 9.1,-22.1c0,-8.3 -3.3,-16.2 -9.2,-22.1c-5.9,-5.8 -13.7,-9.1 -22,-9.1c-8.4,0 -16.3,3.3 -22.2,9.2c-12.1,12.2 -12,32.1 0.2,44.2c5.8,5.9 13.6,9.1 21.9,9.1zm-18.3,-49.4c4.9,-4.9 11.4,-7.6 18.3,-7.6c6.8,0 13.3,2.7 18.2,7.5c4.9,4.9 7.6,11.3 7.6,18.2c0,6.9 -2.6,13.4 -7.5,18.3c-4.9,4.9 -11.4,7.6 -18.3,7.6c-6.8,0 -13.3,-2.7 -18.2,-7.5c-10,-10 -10.1,-26.4 -0.1,-36.5z" id="svg_13"/>
   <path fill="#f0f5f9" d="m1122.24529,337.79931c-1.5,-0.1 -2.8,1.1 -2.9,2.6l0,0.5c-0.1,1.5 1,2.8 2.5,2.9c0.1,0 0.1,0 0.2,0c1.4,0 2.6,-1.1 2.7,-2.5l0,-0.6c0.1,-1.5 -1,-2.8 -2.5,-2.9z" id="svg_14"/>
   <path fill="#f0f5f9" d="m1117.34529,329.09931c0.9,2 1.5,4.2 1.8,6.3c0.2,1.4 1.4,2.3 2.7,2.3c0.1,0 0.3,0 0.4,0c1.5,-0.2 2.5,-1.6 2.3,-3.1c-0.4,-2.7 -1.1,-5.2 -2.2,-7.7c-1.5,-3.6 -3.8,-6.8 -6.6,-9.6c-1.1,-1.1 -2.8,-1.1 -3.9,0c-1.1,1.1 -1.1,2.8 0,3.9c2.4,2.3 4.2,4.9 5.5,7.9z" id="svg_15"/>
   <path fill="#f0f5f9" d="m883.74529,217.69931c2,1 4.4,1.6 7.1,1.6l0,3.6c0,1.5 1.2,2.7 2.7,2.7s2.7,-1.2 2.7,-2.7l0,-4.3c1.3,-0.4 2.5,-1 3.5,-1.7c1.1,-0.8 2,-1.8 2.6,-3c0.6,-1.2 0.9,-2.6 0.9,-4.1c0,-1.2 -0.2,-2.3 -0.6,-3.2c-0.4,-0.9 -1,-1.8 -1.7,-2.6c-0.8,-0.7 -1.7,-1.4 -2.9,-2.1c-0.6,-0.3 -1.2,-0.6 -1.9,-1l0,-10.7c0.9,0.2 1.7,0.4 2.5,0.7c0.3,0.1 0.6,0.2 0.9,0.2c1.4,0 2.5,-1.1 2.5,-2.5c0,-1 -0.6,-1.9 -1.6,-2.3c-1.3,-0.5 -2.8,-0.8 -4.3,-1l0,-3c0,-1.5 -1.2,-2.7 -2.7,-2.7s-2.7,1.2 -2.7,2.7l0,3.3c-0.3,0.1 -0.5,0.1 -0.8,0.2c-1.4,0.4 -2.7,1 -3.7,1.8c-1.1,0.8 -2,1.8 -2.6,3c-0.7,1.2 -1,2.5 -1,4c0,1.2 0.2,2.2 0.5,3.2c0.4,0.9 0.9,1.8 1.6,2.6c0.7,0.8 1.6,1.5 2.7,2.1c0.9,0.5 2,1.1 3.2,1.6l0,10.3c-0.4,0 -0.7,-0.1 -1.1,-0.1c-0.7,-0.1 -1.4,-0.3 -2.1,-0.6c-0.6,-0.2 -1.4,-0.5 -1.7,-0.5c-1.2,-0.6 -3.3,0.2 -3.3,1.8l0,0.8c0.2,0.9 0.6,1.6 1.3,1.9zm5.7,-20.1c-0.4,-0.4 -0.8,-0.8 -1,-1.3c-0.2,-0.5 -0.3,-1.1 -0.3,-1.8c0,-0.6 0.1,-1.2 0.4,-1.7c0.3,-0.5 0.6,-1 1.1,-1.4c0.3,-0.3 0.7,-0.5 1.2,-0.7l0,7.8c-0.6,-0.2 -1.1,-0.5 -1.4,-0.9zm6.8,9.4c0,0 0.1,0.1 0,0c0.6,0.5 1,0.9 1.3,1.4c0.3,0.5 0.4,1.1 0.4,1.7c0,1.2 -0.2,2.6 -1.7,3.5l0,-6.6z" id="svg_16"/>
   <path fill="#f0f5f9" d="m893.44529,234.19931c8.4,0 16.3,-3.3 22.2,-9.2c5.9,-5.9 9.1,-13.8 9.1,-22.1c0,-8.3 -3.3,-16.2 -9.2,-22.1c-5.9,-5.8 -13.7,-9.1 -22,-9.1c-8.4,0 -16.3,3.3 -22.2,9.2c-12.1,12.2 -12,32.1 0.2,44.2c5.8,5.9 13.6,9.1 21.9,9.1zm-18.4,-49.4c4.9,-4.9 11.4,-7.6 18.3,-7.6c6.8,0 13.3,2.7 18.2,7.5c4.9,4.9 7.6,11.3 7.6,18.2c0,6.9 -2.6,13.4 -7.5,18.3c-4.9,4.9 -11.4,7.6 -18.3,7.6c-6.8,0 -13.3,-2.7 -18.2,-7.5c-4.9,-4.9 -7.6,-11.3 -7.6,-18.2c0,-6.9 2.7,-13.4 7.5,-18.3z" id="svg_17"/>
   <path fill="#f0f5f9" d="m914.14529,204.89931c-1.5,-0.1 -2.8,1.1 -2.9,2.6l0,0.5c-0.1,1.5 1,2.8 2.5,2.9c0.1,0 0.1,0 0.2,0c1.4,0 2.6,-1.1 2.7,-2.5l0,-0.6c0.2,-1.6 -1,-2.9 -2.5,-2.9z" id="svg_18"/>
   <path fill="#f0f5f9" d="m909.24529,196.09931c0.9,2 1.5,4.1 1.8,6.3c0.2,1.4 1.4,2.3 2.7,2.3c0.1,0 0.3,0 0.4,0c1.5,-0.2 2.5,-1.6 2.3,-3.1c-0.4,-2.7 -1.1,-5.2 -2.2,-7.7c-1.5,-3.6 -3.8,-6.8 -6.6,-9.6c-1.1,-1.1 -2.8,-1.1 -3.9,0c-1.1,1.1 -1.1,2.8 0,3.9c2.4,2.3 4.2,5 5.5,7.9z" id="svg_19"/>
   <path fill="#f0f5f9" d="m591.54529,438.79931c-0.8,-0.8 -1.9,-1.6 -3.1,-2.2c-0.7,-0.4 -1.5,-0.8 -2.3,-1.1l0,-11.8c1,0.2 2.1,0.4 3,0.8c0.3,0.1 0.6,0.2 1,0.2c1.5,0 2.6,-1.2 2.6,-2.6c0,-1.1 -0.7,-2.1 -1.7,-2.5c-1.5,-0.6 -3.2,-0.9 -5,-1.1l0,-3.3c0,-1.5 -1.2,-2.7 -2.7,-2.7c-1.5,0 -2.7,1.2 -2.7,2.7l0,3.6c-0.4,0.1 -0.7,0.2 -1.1,0.3c-1.5,0.5 -2.9,1.1 -4.1,2c-1.2,0.9 -2.1,2 -2.8,3.2c-0.7,1.3 -1.1,2.7 -1.1,4.4c0,1.3 0.2,2.4 0.6,3.4c0.4,1 1,2 1.8,2.8c0.8,0.8 1.8,1.6 2.9,2.3c1.1,0.6 2.3,1.2 3.7,1.8l0,11.3c-0.5,0 -1,-0.1 -1.5,-0.2c-0.8,-0.1 -1.5,-0.3 -2.3,-0.6c-0.7,-0.2 -1.6,-0.5 -1.8,-0.6c-1.3,-0.7 -3.5,0.3 -3.5,1.9l0,0.9c0,0.8 0.4,1.5 1.1,1.8c2.2,1.2 4.9,1.8 8,1.8l0,4c0,1.5 1.2,2.7 2.7,2.7c1.5,0 2.7,-1.2 2.7,-2.7l0,-4.7c1.5,-0.4 2.9,-1.1 4.1,-1.9c1.2,-0.9 2.1,-2 2.8,-3.3c0.7,-1.3 1,-2.8 1,-4.4c0,-1.3 -0.2,-2.5 -0.6,-3.5c-0.2,-0.9 -0.8,-1.9 -1.7,-2.7zm-12.7,-7.1c-0.5,-0.4 -0.8,-0.9 -1.1,-1.5c-0.2,-0.5 -0.3,-1.2 -0.3,-1.9c0,-0.7 0.1,-1.4 0.4,-1.9c0.3,-0.6 0.7,-1.1 1.3,-1.5c0.4,-0.3 1,-0.6 1.6,-0.8l0,9c-0.8,-0.5 -1.4,-1 -1.9,-1.4zm7.3,10c0.1,0.1 0.3,0.2 0.4,0.2c0.6,0.5 1,1 1.4,1.5c0.3,0.5 0.4,1.2 0.4,1.9c0,1.9 -0.7,3.2 -2.2,4l0,-7.6z" id="svg_20"/>
   <path fill="#f0f5f9" d="m583.24529,403.59931c-9.1,0 -17.7,3.6 -24.1,10c-6.4,6.4 -9.9,15 -9.8,24c0,9.1 3.6,17.6 10,23.9c6.4,6.3 14.9,9.8 23.9,9.8c9.1,0 17.7,-3.6 24.1,-10c6.4,-6.4 9.9,-15 9.8,-24c0,-9.1 -3.6,-17.6 -10,-23.9c-6.4,-6.3 -14.9,-9.8 -23.9,-9.8zm20.3,53.9c-5.4,5.4 -12.6,8.4 -20.2,8.4c-7.6,0 -14.7,-2.9 -20,-8.2c-5.4,-5.4 -8.4,-12.5 -8.4,-20.1c0,-7.6 2.9,-14.8 8.2,-20.2c5.4,-5.4 12.6,-8.4 20.2,-8.4c7.6,0 14.7,2.9 20,8.2c5.4,5.4 8.4,12.5 8.4,20.1c0,7.7 -2.9,14.8 -8.2,20.2z" id="svg_21"/>
   <path fill="#f0f5f9" d="m605.94529,439.79931c-1.5,-0.1 -2.8,1.1 -2.9,2.6l0,0.5c-0.1,1.5 1,2.8 2.5,2.9c0.1,0 0.1,0 0.2,0c1.4,0 2.6,-1.1 2.7,-2.5l0,-0.6c0.2,-1.5 -1,-2.8 -2.5,-2.9z" id="svg_22"/>
   <path fill="#f0f5f9" d="m594.94529,417.39931c-1.1,1.1 -1.1,2.8 0,3.9c2.5,2.5 4.5,5.5 5.9,8.7c1,2.2 1.6,4.6 2,7c0.2,1.4 1.4,2.3 2.7,2.3c0.1,0 0.3,0 0.4,0c1.5,-0.2 2.5,-1.6 2.3,-3.1c-0.4,-2.9 -1.2,-5.7 -2.4,-8.4c-1.7,-3.9 -4.1,-7.4 -7.1,-10.4c-1.1,-1.1 -2.8,-1.1 -3.8,0z" id="svg_23"/>
   <path fill="#f0f5f9" d="m1309.64529,480.09931c-0.8,-0.8 -1.9,-1.6 -3.1,-2.2c-0.7,-0.4 -1.5,-0.8 -2.3,-1.1l0,-11.8c1,0.2 2.1,0.4 3,0.8c0.3,0.1 0.6,0.2 1,0.2c1.5,0 2.6,-1.2 2.6,-2.6c0,-1.1 -0.7,-2.1 -1.7,-2.5c-1.5,-0.6 -3.2,-0.9 -5,-1.1l0,-3.3c0,-1.5 -1.2,-2.7 -2.7,-2.7s-2.7,1.2 -2.7,2.7l0,3.6c-0.4,0.1 -0.7,0.2 -1.1,0.3c-1.5,0.5 -2.9,1.1 -4,2c-1.2,0.9 -2.1,2 -2.8,3.2c-0.7,1.3 -1.1,2.7 -1.1,4.4c0,1.3 0.2,2.4 0.6,3.4c0.4,1 1,2 1.8,2.8c0.8,0.8 1.8,1.6 2.9,2.3c1.1,0.6 2.3,1.2 3.7,1.8l0,11.3c-0.5,0 -1,-0.1 -1.5,-0.2c-0.8,-0.1 -1.5,-0.3 -2.3,-0.6c-0.7,-0.2 -1.6,-0.5 -1.8,-0.6c-1.3,-0.7 -3.5,0.3 -3.5,1.9l0,0.9c0,0.8 0.4,1.5 1.1,1.8c2.2,1.2 4.9,1.8 8,1.8l0,4c0,1.5 1.2,2.7 2.7,2.7s2.7,-1.2 2.7,-2.7l0,-4.6c1.5,-0.4 2.9,-1.1 4.1,-1.9c1.2,-0.9 2.1,-2 2.8,-3.3c0.7,-1.3 1,-2.8 1,-4.4c0,-1.3 -0.2,-2.5 -0.6,-3.5c-0.4,-1.1 -1,-2 -1.8,-2.8zm-12.7,-7.1c-0.5,-0.4 -0.8,-0.9 -1.1,-1.5c-0.2,-0.5 -0.3,-1.2 -0.3,-1.9c0,-0.7 0.1,-1.4 0.4,-1.9c0.3,-0.6 0.7,-1.1 1.3,-1.5c0.4,-0.3 1,-0.6 1.6,-0.8l0,8.9c-0.8,-0.5 -1.5,-0.9 -1.9,-1.3zm7.3,10c0.1,0.1 0.3,0.2 0.4,0.2c0.6,0.5 1,1 1.4,1.5c0.3,0.5 0.4,1.2 0.4,1.9c0,1.9 -0.7,3.2 -2.2,4l0,-7.6z" id="svg_24"/>
   <path fill="#f0f5f9" d="m1325.14529,454.69931c-6.4,-6.3 -14.9,-9.8 -23.9,-9.8c-9.1,0 -17.6,3.6 -24.1,10c-13.2,13.3 -13.1,34.8 0.2,47.9c6.4,6.3 14.9,9.8 23.9,9.8c9.1,0 17.6,-3.6 24.1,-10c13.2,-13.2 13.1,-34.7 -0.2,-47.9zm-23.8,52.5c-7.5,0 -14.7,-2.9 -20,-8.2c-11.1,-11 -11.2,-29.1 -0.2,-40.2c5.4,-5.4 12.5,-8.4 20.2,-8.4c7.5,0 14.7,2.9 20,8.2c11.1,11 11.2,29.1 0.2,40.2c-5.4,5.4 -12.6,8.4 -20.2,8.4z" id="svg_25"/>
   <path fill="#f0f5f9" d="m1323.94529,481.09931c-1.5,-0.1 -2.8,1.1 -2.9,2.6l0,0.5c-0.1,1.5 1,2.8 2.5,2.9c0.1,0 0.1,0 0.2,0c1.4,0 2.6,-1.1 2.7,-2.5l0,-0.6c0.2,-1.5 -1,-2.8 -2.5,-2.9z" id="svg_26"/>
   <path fill="#f0f5f9" d="m1323.54529,480.49931c0.1,0 0.3,0 0.4,0c1.5,-0.2 2.5,-1.6 2.3,-3.1c-0.4,-2.9 -1.2,-5.7 -2.4,-8.4c-1.7,-3.9 -4.1,-7.4 -7.1,-10.4c-1.1,-1.1 -2.8,-1.1 -3.9,0c-1.1,1.1 -1.1,2.8 0,3.9c2.5,2.5 4.5,5.4 5.9,8.7c1,2.2 1.6,4.6 2,7c0.3,1.3 1.5,2.3 2.8,2.3z" id="svg_27"/>
   <path fill="#f0f5f9" d="m772.64529,927.99931c-0.6,-0.6 -1.3,-1.1 -2.2,-1.6c-0.3,-0.1 -0.5,-0.3 -0.8,-0.4l0,-7.9c0.4,0.1 0.8,0.2 1.2,0.4c0.2,0.1 0.5,0.1 0.8,0.1c1.1,0 2,-0.9 2,-2c0,-0.8 -0.5,-1.6 -1.3,-1.9c-0.8,-0.3 -1.7,-0.5 -2.7,-0.7l0,-2.1c0,-1.5 -1.2,-2.7 -2.7,-2.7s-2.7,1.2 -2.7,2.7l0,2.5c-1.1,0.3 -2,0.8 -2.8,1.4c-0.8,0.6 -1.5,1.4 -2,2.3c-0.5,0.9 -0.8,2 -0.8,3.1c0,0.9 0.1,1.7 0.4,2.5c0.3,0.7 0.7,1.4 1.3,2c0.5,0.6 1.2,1.1 2.1,1.6c0.5,0.3 1.2,0.6 1.8,0.9l0,7.6c0,0 -0.1,0 -0.1,0c-0.5,-0.1 -1,-0.2 -1.5,-0.4c-0.5,-0.2 -1.1,-0.4 -1.2,-0.4c-1,-0.5 -2.7,0.2 -2.7,1.5l0,0.6c0,0.6 0.3,1.2 0.9,1.5c1.4,0.7 3,1.1 4.8,1.2l0,2.6c0,1.5 1.2,2.7 2.7,2.7s2.7,-1.2 2.7,-2.7l0,-3.3c0.8,-0.3 1.5,-0.7 2.1,-1.1c0.9,-0.6 1.5,-1.4 2,-2.3c0.5,-0.9 0.7,-2 0.7,-3.1c0,-0.9 -0.1,-1.8 -0.4,-2.5c-0.6,-0.8 -1,-1.5 -1.6,-2.1zm-3,3.3c0,0.1 0.1,0.1 0.2,0.2c0.2,0.3 0.3,0.7 0.3,1.2c0,0.6 -0.1,1.2 -0.4,1.7l0,-3.1l-0.1,0zm-5.8,-8.2c-0.3,-0.3 -0.5,-0.6 -0.7,-0.9c-0.1,-0.4 -0.2,-0.8 -0.2,-1.3c0,-0.5 0.1,-0.9 0.3,-1.2c0.2,-0.4 0.5,-0.7 0.8,-1c0,0 0.1,0 0.1,-0.1l0,4.7c-0.1,-0.1 -0.2,-0.1 -0.3,-0.2z" id="svg_28"/>
   <path fill="#f0f5f9" d="m766.74529,902.99931c-6.5,0 -12.6,2.5 -17.2,7.2c-4.6,4.6 -7,10.7 -7,17.1c0,6.5 2.6,12.5 7.2,17.1c4.6,4.5 10.6,7 17,7c6.5,0 12.6,-2.5 17.2,-7.2c4.6,-4.6 7,-10.7 7,-17.1c0,-6.5 -2.6,-12.5 -7.2,-17.1c-4.5,-4.5 -10.5,-7 -17,-7zm13.3,37.5c-3.5,3.6 -8.3,5.6 -13.3,5.6c-5,0 -9.7,-1.9 -13.2,-5.4c-3.6,-3.5 -5.5,-8.2 -5.6,-13.2c0,-5 1.9,-9.7 5.4,-13.3c3.5,-3.6 8.3,-5.6 13.3,-5.6c5,0 9.7,1.9 13.2,5.4c3.6,3.5 5.5,8.2 5.6,13.2c0.1,5 -1.8,9.7 -5.4,13.3z" id="svg_29"/>
   <path fill="#f0f5f9" d="m874.94529,660.59931c-0.7,-0.7 -1.6,-1.3 -2.6,-1.9c-0.5,-0.3 -1,-0.5 -1.5,-0.8l0,-9.7c0.7,0.1 1.4,0.3 2,0.6c0.3,0.1 0.6,0.2 0.9,0.2c1.3,0 2.3,-1 2.3,-2.3c0,-0.9 -0.6,-1.8 -1.5,-2.2c-1.1,-0.4 -2.4,-0.7 -3.7,-0.9l0,-2.7c0,-1.5 -1.2,-2.7 -2.7,-2.7c-1.5,0 -2.7,1.2 -2.7,2.7l0,3c-0.2,0 -0.3,0.1 -0.5,0.1c-1.3,0.4 -2.4,0.9 -3.4,1.7c-1,0.7 -1.8,1.6 -2.4,2.7c-0.6,1.1 -0.9,2.3 -0.9,3.7c0,1.1 0.2,2.1 0.5,2.9c0.3,0.9 0.8,1.7 1.5,2.4c0.6,0.7 1.5,1.4 2.5,1.9c0.8,0.5 1.7,0.9 2.7,1.4l0,9.4c-0.2,0 -0.5,-0.1 -0.8,-0.1c-0.6,-0.1 -1.3,-0.3 -1.9,-0.5c-0.5,-0.2 -1.3,-0.4 -1.5,-0.5c-1.1,-0.6 -3.1,0.2 -3.1,1.7l0,0.7c0,0.7 0.4,1.3 1,1.6c1.8,0.9 3.9,1.4 6.3,1.5l0,3.2c0,1.5 1.2,2.7 2.7,2.7c1.5,0 2.7,-1.2 2.7,-2.7l0,-3.7c1.1,-0.4 2.1,-0.9 3,-1.5c1,-0.7 1.8,-1.7 2.4,-2.8c0.6,-1.1 0.9,-2.3 0.9,-3.7c0,-1.1 -0.2,-2.1 -0.5,-3c-0.4,-0.9 -1,-1.7 -1.7,-2.4zm-10.6,-5.9c-0.4,-0.4 -0.7,-0.8 -0.9,-1.2c-0.2,-0.4 -0.3,-1 -0.3,-1.6c0,-0.6 0.1,-1.1 0.4,-1.6c0.2,-0.5 0.6,-0.9 1,-1.2c0.2,-0.2 0.5,-0.3 0.8,-0.5l0,6.8c-0.3,-0.2 -0.7,-0.4 -1,-0.7zm6.5,8.9c0.4,0.3 0.7,0.7 0.9,1c0.2,0.4 0.4,0.9 0.4,1.5c0,1 -0.2,2.1 -1.2,3l0,-5.5l-0.1,0z" id="svg_30"/>
   <path fill="#f0f5f9" d="m867.94529,630.99931c-7.7,0 -14.9,3 -20.4,8.5c-5.4,5.4 -8.3,12.7 -8.3,20.3c0,7.7 3,14.9 8.5,20.3c5.4,5.4 12.6,8.3 20.2,8.3c7.7,0 14.9,-3 20.4,-8.5c11.1,-11.2 11.1,-29.4 -0.2,-40.6c-5.4,-5.4 -12.5,-8.3 -20.2,-8.3zm16.5,45c-4.4,4.4 -10.3,6.9 -16.5,6.9c-6.2,0 -12,-2.4 -16.4,-6.7c-4.4,-4.4 -6.9,-10.2 -6.9,-16.4c0,-6.2 2.4,-12.1 6.7,-16.5c4.4,-4.4 10.3,-6.9 16.5,-6.9c6.2,0 12,2.4 16.4,6.7c9.2,9.1 9.3,23.8 0.2,32.9z" id="svg_31"/>
   <path fill="#f0f5f9" d="m877.34529,642.59931c-1.1,1.1 -1.1,2.8 0,3.9c2.1,2.1 3.7,4.4 4.9,7.1c0.8,1.8 1.3,3.7 1.6,5.7c0.1,1 0.9,1.8 1.8,2.2c-0.9,0.4 -1.5,1.3 -1.6,2.3l0,0.4c-0.1,1.5 1,2.8 2.5,2.9c0.1,0 0.1,0 0.2,0c1.4,0 2.6,-1.1 2.7,-2.5l0,-0.5c0.1,-1.2 -0.7,-2.3 -1.8,-2.7c1.1,-0.5 1.8,-1.6 1.6,-2.9c-0.4,-2.4 -1,-4.8 -2,-7.1c-1.4,-3.3 -3.4,-6.3 -6,-8.8c-1.1,-1.1 -2.9,-1.1 -3.9,0z" id="svg_32"/>
   <path fill="#f0f5f9" d="m659.44529,904.39931c-0.7,-0.7 -1.7,-1.4 -2.8,-2c-0.6,-0.3 -1.2,-0.6 -1.8,-0.9l0,-10.5c0.8,0.2 1.6,0.4 2.4,0.7c0.3,0.1 0.6,0.2 0.9,0.2c1.3,0 2.4,-1.1 2.4,-2.4c0,-1 -0.6,-1.9 -1.5,-2.3c-1.3,-0.5 -2.7,-0.8 -4.2,-1l0,-2.9c0,-1.5 -1.2,-2.7 -2.7,-2.7s-2.7,1.2 -2.7,2.7l0,3.2c-0.2,0.1 -0.5,0.1 -0.7,0.2c-1.4,0.4 -2.6,1 -3.7,1.8c-1.1,0.8 -1.9,1.8 -2.6,2.9c-0.6,1.2 -1,2.5 -1,3.9c0,1.2 0.2,2.2 0.5,3.1c0.3,0.9 0.9,1.8 1.6,2.6c0.7,0.8 1.6,1.5 2.7,2.1c0.9,0.5 1.9,1 3.1,1.5l0,10.1c-0.3,0 -0.7,-0.1 -1,-0.1c-0.7,-0.1 -1.4,-0.3 -2.1,-0.6c-0.6,-0.2 -1.4,-0.5 -1.6,-0.5c-1.2,-0.6 -3.2,0.2 -3.2,1.8l0,0.8c0,0.7 0.4,1.4 1,1.7c1.9,1 4.3,1.5 6.9,1.6l0,3.5c0,1.5 1.2,2.7 2.7,2.7s2.7,-1.2 2.7,-2.7l0,-4.2c1.3,-0.4 2.4,-0.9 3.4,-1.7c1.1,-0.8 1.9,-1.8 2.6,-2.9c0.6,-1.2 0.9,-2.5 0.9,-4c0,-1.2 -0.2,-2.3 -0.6,-3.2c-0.2,-0.9 -0.8,-1.7 -1.6,-2.5zm-11.4,-6.3c-0.4,-0.4 -0.7,-0.8 -0.9,-1.3c-0.2,-0.5 -0.3,-1.1 -0.3,-1.7c0,-0.6 0.1,-1.2 0.4,-1.7c0.3,-0.5 0.6,-1 1.1,-1.3c0.3,-0.2 0.7,-0.4 1.1,-0.6l0,7.6c-0.6,-0.4 -1,-0.7 -1.4,-1zm6.8,9.3c0.5,0.4 0.9,0.9 1.2,1.3c0.3,0.5 0.4,1 0.4,1.7c0,1.1 -0.2,2.5 -1.6,3.4l0,-6.4z" id="svg_33"/>
   <path fill="#f0f5f9" d="m651.94529,872.59931c-8.2,0 -16,3.2 -21.8,9.1c-5.8,5.8 -8.9,13.5 -8.9,21.7c0,8.2 3.3,15.9 9.1,21.7c5.8,5.7 13.5,8.9 21.6,8.9c8.2,0 16,-3.2 21.8,-9.1c11.9,-12 11.8,-31.5 -0.2,-43.4c-5.7,-5.7 -13.4,-8.9 -21.6,-8.9zm18,48.5c-4.8,4.8 -11.1,7.5 -17.9,7.5c-6.7,0 -13,-2.6 -17.8,-7.3c-4.8,-4.7 -7.4,-11.1 -7.5,-17.8c0,-6.7 2.6,-13.1 7.3,-17.9c4.8,-4.8 11.1,-7.5 17.9,-7.5c6.7,0 13,2.6 17.8,7.3c9.9,9.8 10,25.8 0.2,35.7z" id="svg_34"/>
   <path fill="#f0f5f9" d="m662.14529,885.09931c-1.1,1.1 -1.1,2.8 0,3.9c2.3,2.2 4,4.8 5.3,7.7c0.9,2 1.4,4.1 1.7,6.2c0.2,1.3 1.3,2.3 2.6,2.3c-1.3,0.2 -2.3,1.2 -2.4,2.5l0,0.5c-0.1,1.5 1,2.8 2.5,2.9c0.1,0 0.1,0 0.2,0c1.4,0 2.6,-1.1 2.7,-2.5l0,-0.5c0.1,-1.5 -1.1,-2.8 -2.6,-2.9c1.5,-0.2 2.5,-1.6 2.3,-3.1c-0.4,-2.6 -1.1,-5.2 -2.1,-7.6c-1.5,-3.5 -3.7,-6.7 -6.4,-9.4c-1,-1.1 -2.7,-1.1 -3.8,0z" id="svg_35"/>
   <path fill="#f0f5f9" d="m1420.14529,338.69931c-12.6,2.4 -23.6,9.5 -30.8,20.2c-10.4,15.2 -11.1,35.3 -1.9,51.3c0.4,0.7 0.8,1.3 1.2,2l-4.8,17.1c-0.4,1.6 0,3.3 1.2,4.5c0.8,0.8 1.9,1.2 3.1,1.2c0.5,0 1,-0.1 1.4,-0.2l17.4,-5.9c0.6,0.3 1.1,0.6 1.7,0.8c6.6,3.1 13.6,4.6 20.4,4.6c15.4,0 30.4,-7.5 39.6,-21.1c14.9,-21.9 9.3,-51.9 -12.6,-66.8c-10.5,-7.5 -23.3,-10.1 -35.9,-7.7zm50.8,39.3c2.1,11.2 -0.3,22.5 -6.7,31.9c-11.8,17.4 -34.2,23.5 -53.3,14.6c-2.1,-1 -4.1,-2.1 -6,-3.4c-1.2,-0.9 -2.9,-0.5 -3.8,0.7c-0.6,0.9 -0.6,2.1 0,3l-11.6,3.9l3.2,-11.5c1,0.5 2.2,0.5 3.1,-0.3c1.2,-1 1.3,-2.7 0.4,-3.8c-1.5,-1.8 -2.9,-3.8 -4.1,-5.9c-8.2,-14.1 -7.5,-32 1.6,-45.4c6.4,-9.4 16.1,-15.8 27.3,-17.9c11.2,-2.1 22.5,0.3 31.9,6.7c9.5,6.5 15.9,16.2 18,27.4z" id="svg_36"/>
   <path fill="#f0f5f9" d="m1448.54529,357.29931c3.7,2.5 6.8,5.7 9.3,9.3c3.1,4.6 5,9.9 5.6,15.5c0.2,1.4 1.3,2.4 2.7,2.4c0.1,0 0.2,0 0.3,0c1.5,-0.2 2.6,-1.5 2.4,-3c-0.7,-6.4 -3,-12.6 -6.5,-17.9c-2.8,-4.3 -6.5,-7.9 -10.7,-10.8c-1.2,-0.8 -2.9,-0.5 -3.8,0.7c-0.9,1.3 -0.5,3 0.7,3.8z" id="svg_37"/>
   <path fill="#f0f5f9" d="m1466.44529,384.69931c-1.6,-0.1 -2.8,1.1 -2.8,2.6c0,1.1 -0.1,2.2 -0.3,3.3c-0.2,1.5 0.8,2.9 2.3,3.1c0.1,0 0.3,0 0.4,0c1.3,0 2.5,-1 2.7,-2.4c0.2,-1.3 0.3,-2.6 0.3,-3.9c0.1,-1.3 -1.1,-2.6 -2.6,-2.7z" id="svg_38"/>
   <path fill="#f0f5f9" d="m1418.54529,408.09931c0.4,0.6 1,0.9 1.8,0.9l0.1,0c0.9,0 1.6,-0.5 2,-1.3l16.9,-41.8c0.3,-0.7 0.2,-1.4 -0.2,-2c-0.4,-0.6 -1,-0.9 -1.8,-0.9c-0.9,0 -1.6,0.5 -2,1.3l-16.9,41.8c-0.4,0.6 -0.3,1.4 0.1,2z" id="svg_39"/>
   <path fill="#f0f5f9" d="m1425.04529,373.69931c0,-3.2 -1.1,-5.8 -3.3,-8c-2.3,-2.2 -4.9,-3.3 -8.1,-3.3c-3.1,0 -5.8,1.1 -8,3.3c-2.3,2.3 -3.3,4.9 -3.3,8c0,3.2 1.1,5.8 3.3,8.1c2.2,2.3 4.9,3.3 8,3.3c3.2,0 5.8,-1.1 8.1,-3.3c2.2,-2.3 3.3,-4.9 3.3,-8.1zm-6.4,4.9c-1.4,1.4 -3,2.1 -5,2.1c-1.9,0 -3.6,-0.7 -5,-2.1c-1.4,-1.4 -2.1,-3 -2.1,-5s0.7,-3.6 2.1,-5c1.4,-1.4 3,-2.1 5,-2.1c1.9,0 3.6,0.7 5,2.1c1.4,1.4 2.1,3 2.1,5c0,2 -0.7,3.7 -2.1,5z" id="svg_40"/>
   <path fill="#f0f5f9" d="m1433.04529,398.09931c0,3.2 1.1,5.8 3.3,8.1c2.3,2.3 4.9,3.3 8.1,3.3c3.1,0 5.8,-1.1 8,-3.3c2.3,-2.3 3.3,-4.9 3.3,-8.1c0,-3.2 -1.1,-5.8 -3.3,-8.1c-2.3,-2.3 -4.9,-3.3 -8,-3.3c-3.2,0 -5.8,1.1 -8.1,3.3c-2.2,2.3 -3.3,4.9 -3.3,8.1zm6.5,-5c1.4,-1.4 3,-2.1 5,-2.1c1.9,0 3.6,0.7 5,2.1c1.4,1.4 2.1,3 2.1,5c0,1.9 -0.7,3.6 -2.1,5c-1.4,1.4 -3,2.1 -5,2.1c-1.9,0 -3.6,-0.7 -5,-2.1c-1.4,-1.4 -2.1,-3 -2.1,-5c0,-2 0.7,-3.6 2.1,-5z" id="svg_41"/>
   <path fill="#f0f5f9" d="m1170.94529,264.59931c-2.3,15.8 1.7,31.6 11.3,44.5c11.4,15.3 29,24.1 48.1,24.1c13,0 25.3,-4.1 35.8,-11.9c12.8,-9.6 21.2,-23.6 23.5,-39.4c2.3,-15.8 -1.7,-31.6 -11.3,-44.5c-11.4,-15.3 -29,-24.1 -48.1,-24.1c-13,0 -25.3,4.1 -35.8,11.9c-12.9,9.6 -21.2,23.6 -23.5,39.4zm5.3,0.8c1.8,-12.5 7.7,-23.7 16.9,-32.1l0,48l-16.9,0c-0.7,-5.2 -0.7,-10.6 0,-15.9zm97.6,-24.7c8.7,11.7 12.3,26 10.2,40.4c-2.1,14.4 -9.7,27.1 -21.3,35.8c-9.5,7.1 -20.7,10.8 -32.5,10.8c-17.4,0 -33.3,-8 -43.7,-21.9c-4.3,-5.8 -7.4,-12.2 -9.1,-19l16.9,0c2.4,0 4.3,-1.9 4.3,-4.3l0,-52.9c0,-0.2 0,-0.4 -0.1,-0.6c6.2,-4.4 13.1,-7.5 20.4,-9l0,62.6c0,2.4 1.9,4.3 4.3,4.3l28.5,0c2.4,0 4.3,-1.9 4.3,-4.3l0,-57.3c6.8,3.6 13,8.8 17.8,15.4zm-23.2,-18c-0.1,0.2 -0.1,0.4 -0.1,0.6l0,58l-26.2,0l0,-62.3c1.9,-0.2 3.8,-0.3 5.8,-0.3c7.2,0.1 14.1,1.4 20.5,4z" id="svg_42"/>
   <path fill="#f0f5f9" d="m1146.54529,260.99931c-3.3,22.3 2.4,44.6 15.9,62.7c16.1,21.6 40.8,34 67.8,34c0,0 0,0 0,0c12.3,0 24.3,-2.6 35.3,-7.7l14.7,19.7c-2.1,2.8 -2.2,6.7 0,9.5l31.7,42.9c4.3,5.8 11.2,9.2 18.3,9.2c5,0 9.7,-1.6 13.6,-4.5c4.9,-3.6 8.1,-9 9,-15c0.9,-6 -0.6,-12.1 -4.3,-17l-31.7,-42.8c-1.5,-2 -3.9,-3.2 -6.4,-3.2c-0.6,0 -1.2,0.1 -1.8,0.2l-14.9,-20c10.7,-12.2 17.7,-27.2 20.1,-43.6c3.3,-22.3 -2.4,-44.6 -15.9,-62.7c-10.8,-14.5 -25.4,-24.8 -42,-30l0,-117.1c0,-2.4 -1.9,-4.3 -4.3,-4.3l-28.5,0c-2.4,0 -4.3,1.9 -4.3,4.3l0,113.8c-7,0.9 -13.8,2.7 -20.3,5.4l0,-50.7c0,-2.4 -1.9,-4.3 -4.3,-4.3l-28.5,0c-2.4,0 -4.3,1.9 -4.3,4.3l0,77.2c0,0.7 0.2,1.3 0.6,1.7c-8.1,11 -13.5,24 -15.5,38zm143.4,72.1l13.9,18.7l-19.5,14.5l-14,-18.7c3.5,-1.9 7,-4.1 10.3,-6.6c3.4,-2.4 6.4,-5.1 9.3,-7.9zm22.6,22.2l31.7,42.9c2.8,3.7 3.9,8.3 3.3,12.9c-0.7,4.6 -3.1,8.7 -6.8,11.4c-3,2.3 -6.6,3.5 -10.4,3.5c-5.6,0 -10.7,-2.6 -14,-7l-31.7,-42.9c-0.8,-1.1 -0.6,-2.7 0.5,-3.5l23.9,-17.8c0.4,-0.3 1,-0.5 1.5,-0.5c0.8,0 1.5,0.3 2,1zm-18.9,-129.3c12.6,16.9 17.9,37.8 14.9,58.7c-3,20.9 -14.1,39.4 -31,52c-3.6,2.7 -7.4,5 -11.3,7c-0.6,0 -1.1,0.2 -1.6,0.5c-0.2,0.2 -0.4,0.3 -0.5,0.5c-10.5,5 -22,7.6 -33.8,7.6c-25.3,0 -48.4,-11.6 -63.5,-31.8c-12.6,-16.9 -17.9,-37.8 -14.9,-58.7c3,-20.9 14.1,-39.4 31,-52c13.8,-10.3 30.1,-15.7 47.2,-15.7c25.3,0 48.4,11.6 63.5,31.9zm-69.3,-149.2l26.2,0l0,114.4c-6.6,-1.6 -13.4,-2.4 -20.4,-2.4c-1.9,0 -3.8,0.1 -5.8,0.2l0,-112.2zm-57.3,68.5l26.2,0l0,52c-4.7,2.3 -9.2,5 -13.5,8.2c-4.7,3.5 -8.9,7.4 -12.7,11.6l0,-71.8z" id="svg_43"/>
   <path fill="#f0f5f9" d="m1137.14529,286.79931c2.2,0 4,-1.8 4,-4l0,-73.2c0,-2.2 -1.8,-4 -4,-4l-29,0c-2.2,0 -4,1.8 -4,4l0,73.2c0,2.2 1.8,4 4,4l29,0zm-27.6,-75.8l26.2,0l0,70.3l-26.2,0l0,-70.3z" id="svg_44"/>
   <path fill="#f0f5f9" d="m1258.14529,211.39931c8.1,4 15.3,9.3 21.3,16c7.5,8.3 13,18.5 15.8,29.3c0.3,1.2 1.4,2 2.6,2c0.2,0 0.5,0 0.7,-0.1c1.5,-0.4 2.3,-1.9 1.9,-3.3c-3.1,-11.7 -9,-22.7 -17.1,-31.6c-6.5,-7.2 -14.2,-13 -23,-17.2c-1.4,-0.7 -3,-0.1 -3.6,1.3c-0.5,1.3 0.1,2.9 1.4,3.6z" id="svg_45"/>
   <path fill="#f0f5f9" d="m1299.74529,264.19931c-1.5,0.2 -2.6,1.5 -2.4,3c0.2,2.2 0.4,4.5 0.4,6.8c0,1.5 1.2,2.7 2.7,2.7c0,0 0,0 0,0c1.5,0 2.7,-1.2 2.7,-2.7c0,-2.4 -0.2,-4.9 -0.4,-7.3c-0.2,-1.6 -1.6,-2.7 -3,-2.5z" id="svg_46"/>
   <path fill="#f0f5f9" d="m677.14529,70.09931l0,71.2c0,2.7 2.2,4.9 4.9,4.9l135.8,0c2.7,0 4.9,-2.2 4.9,-4.9l0,-71.2c0,-2.7 -2.2,-4.9 -4.9,-4.9l-135.7,0c-2.8,0 -5,2.2 -5,4.9zm5.5,0.5l134.8,0l0,70.2l-134.8,0l0,-70.2z" id="svg_47"/>
   <path fill="#f0f5f9" d="m799.14529,79.59931l0,-2.7l-39.7,0l6.7,4.9c9.6,7 10.8,16.7 10.8,24.4c0,9.7 -3.7,18.7 -9.6,23.5l-6,4.8l37.8,0l0,-2.7c0,-5.6 4.9,-8.2 9.4,-8.2l2.7,0l0,-31l-2.7,0c-4.3,0.1 -9.4,-7 -9.4,-13zm6.7,38.8c-5.6,0.9 -10.8,4.5 -11.9,10.7l-18.6,0c4.5,-6 7.1,-14.3 7.1,-22.9c0,-6.8 -0.9,-16.1 -7.7,-23.9l19.2,0c1.1,6.7 6,13.7 11.9,15.4l0,20.7z" id="svg_48"/>
   <path fill="#f0f5f9" d="m720.14529,106.19931c0,-10.2 4.1,-19.5 10.8,-24.4l6.7,-4.9l-37.1,0l0,2.7c0,6 -5,13.1 -9.2,13.1l-2.7,0l0,31l2.7,0c4.4,0 9.2,2.6 9.2,8.2l0,2.7l35.2,0l-6,-4.8c-5.9,-4.9 -9.6,-13.9 -9.6,-23.6zm-14.3,22.9c-1.1,-5.6 -5.6,-9.8 -11.7,-10.7l0,-20.7c5.9,-1.7 10.7,-8.7 11.7,-15.4l16.8,0c-5,6.2 -7.9,14.8 -7.9,23.9c0,8.6 2.6,16.9 7.1,22.9l-16,0z" id="svg_49"/>
   <path fill="#f0f5f9" d="m757.74529,108.59931c-1,-0.9 -2.2,-1.7 -3.7,-2.4c-1,-0.5 -2.2,-1 -3.6,-1.6l0,-12.9c1.6,0.2 3.1,0.5 4.6,1c0.4,0.1 0.7,0.2 1.1,0.2c1.7,0 3,-1.3 3,-2.8c0,-1.2 -0.8,-2.2 -1.9,-2.7c-2,-0.7 -4.3,-1.1 -6.8,-1.2l0,-3.6c0,-1.5 -1.2,-2.7 -2.7,-2.7s-2.7,1.2 -2.7,2.7l0,4c-0.5,0.1 -1,0.2 -1.5,0.3c-1.8,0.5 -3.4,1.2 -4.8,2.2c-1.4,1 -2.6,2.1 -3.4,3.5c-0.9,1.4 -1.3,3 -1.3,4.8c0,1.4 0.2,2.7 0.7,3.8c0.5,1.1 1.2,2.2 2.1,3.1c0.9,0.9 2.1,1.8 3.5,2.5c1.3,0.7 2.9,1.4 4.7,2.1l0,12.5c-0.7,0 -1.4,-0.1 -2.1,-0.2c-0.9,-0.2 -1.9,-0.4 -2.8,-0.7c-0.8,-0.3 -1.9,-0.6 -2.3,-0.7c-1.4,-0.7 -4,0.3 -4,2.1l0,0.9c0,0.8 0.5,1.6 1.3,2c2.7,1.3 6.1,2 9.8,2l0,4.4c0,1.5 1.2,2.7 2.7,2.7s2.7,-1.2 2.7,-2.7l0,-5c0.2,-0.1 0.5,-0.1 0.7,-0.1c1.9,-0.5 3.6,-1.2 5,-2.1c1.4,-1 2.6,-2.2 3.4,-3.6c0.8,-1.4 1.2,-3 1.2,-4.8c0,-1.5 -0.2,-2.8 -0.7,-3.9c-0.4,-1.2 -1.2,-2.2 -2.2,-3.1zm-12.8,-6.3c-1,-0.5 -1.9,-1 -2.5,-1.5c-0.6,-0.5 -1,-1 -1.3,-1.6c-0.3,-0.6 -0.4,-1.3 -0.4,-2.1c0,-0.8 0.2,-1.5 0.5,-2.1c0.4,-0.7 0.9,-1.2 1.5,-1.7c0.6,-0.5 1.4,-0.8 2.3,-1.1l0,10.3c-0.1,-0.2 -0.1,-0.2 -0.1,-0.2zm5.5,8.8c0.5,0.3 1,0.6 1.4,0.9c0.7,0.5 1.3,1.1 1.7,1.7c0.4,0.6 0.5,1.3 0.5,2.1c0,2.5 -1.2,4.1 -3.6,4.9l0,-9.6z" id="svg_50"/>
   <path fill="#f0f5f9" d="m665.74529,59.39931l0,72.5c0,1.5 1.2,2.7 2.7,2.7c1.5,0 2.7,-1.2 2.7,-2.7l0,-72.1l139.1,0c1.5,0 2.7,-1.2 2.7,-2.7s-1.2,-2.7 -2.7,-2.7l-139.5,0c-2.7,0 -5,2.2 -5,5z" id="svg_51"/>
   <path fill="#f0f5f9" d="m656.74529,121.99931c1.5,0 2.7,-1.2 2.7,-2.7l0,-70.9l138.7,0c1.5,0 2.7,-1.2 2.7,-2.7c0,-1.5 -1.2,-2.7 -2.7,-2.7l-139.1,0c-2.8,0 -5,2.2 -5,5l0,71.3c0,1.5 1.2,2.7 2.7,2.7z" id="svg_52"/>
   <path fill="#f0f5f9" d="m1150.34529,639.49931l-26.5,0c-6.1,0 -11.1,5 -11.1,11.1l0,26.5c0,6.1 5,11.1 11.1,11.1l26.5,0c6.1,0 11.1,-5 11.1,-11.1l0,-26.5c0.1,-6.1 -4.9,-11.1 -11.1,-11.1zm5.7,37.6c0,3.1 -2.5,5.7 -5.7,5.7l-26.5,0c-3.1,0 -5.7,-2.5 -5.7,-5.7l0,-26.5c0,-3.1 2.5,-5.7 5.7,-5.7l26.5,0c3.1,0 5.7,2.5 5.7,5.7l0,26.5z" id="svg_53"/>
   <path fill="#f0f5f9" d="m1150.34529,695.59931l-26.5,0c-6.1,0 -11.1,5 -11.1,11.1l0,26.5c0,6.1 5,11.1 11.1,11.1l26.5,0c6.1,0 11.1,-5 11.1,-11.1l0,-26.5c0.1,-6.1 -4.9,-11.1 -11.1,-11.1zm5.7,37.6c0,3.1 -2.5,5.7 -5.7,5.7l-26.5,0c-3.1,0 -5.7,-2.5 -5.7,-5.7l0,-26.5c0,-3.1 2.5,-5.7 5.7,-5.7l26.5,0c3.1,0 5.7,2.5 5.7,5.7l0,26.5z" id="svg_54"/>
   <path fill="#f0f5f9" d="m1118.84529,607.09931l140.2,0c3.6,0 6.6,-3 6.6,-6.6l0,-27.9c0,-3.6 -3,-6.6 -6.6,-6.6l-140.2,0c-3.6,0 -6.6,3 -6.6,6.6l0,27.9c0,3.6 2.9,6.6 6.6,6.6zm-1.2,-34.5c0,-0.6 0.5,-1.1 1.1,-1.1l140.3,0c0.6,0 1.1,0.5 1.1,1.1l0,27.9c0,0.6 -0.5,1.1 -1.1,1.1l-140.2,0c-0.6,0 -1.1,-0.5 -1.1,-1.1l0,-27.9l-0.1,0z" id="svg_55"/>
   <path fill="#f0f5f9" d="m1147.14529,661.19931l-7.3,0l0,-7.3c0,-1.5 -1.2,-2.7 -2.7,-2.7c-1.5,0 -2.7,1.2 -2.7,2.7l0,7.3l-7.3,0c-1.5,0 -2.7,1.2 -2.7,2.7s1.2,2.7 2.7,2.7l7.3,0l0,7.3c0,1.5 1.2,2.7 2.7,2.7c1.5,0 2.7,-1.2 2.7,-2.7l0,-7.3l7.3,0c1.5,0 2.7,-1.2 2.7,-2.7s-1.2,-2.7 -2.7,-2.7z" id="svg_56"/>
   <path fill="#f0f5f9" d="m1144.54529,717.19931l-13.7,0c-1.5,0 -2.7,1.2 -2.7,2.7s1.2,2.7 2.7,2.7l13.7,0c1.5,0 2.7,-1.2 2.7,-2.7s-1.1,-2.7 -2.7,-2.7z" id="svg_57"/>
   <path fill="#f0f5f9" d="m1248.14529,684.39931l-13.7,0c-1.5,0 -2.7,1.2 -2.7,2.7c0,1.5 1.2,2.7 2.7,2.7l13.7,0c1.5,0 2.7,-1.2 2.7,-2.7c0,-1.5 -1.2,-2.7 -2.7,-2.7z" id="svg_58"/>
   <path fill="#f0f5f9" d="m1328.34529,822.69931l-5.1,1.6c0,-0.2 0,-0.5 -0.1,-0.7l-2.8,-11.5l0,-0.2c-0.2,-0.7 -0.3,-1.5 -0.2,-2.2l1.4,-17.3c0.5,-6.5 -0.3,-12.9 -2.5,-19.1l-23.4,-67.5c-1.8,-5.1 -5.8,-8.7 -10.5,-10.2l0,-69.4l0,-61.1l0,-0.1c0,-10 -8.1,-18.1 -18.1,-18.1l-0.1,0l-156.3,0l-0.1,0c-10,0 -18.1,8.1 -18.1,18.1l0,0.1l0,61.1l0,121c0,10.1 8.2,18.3 18.3,18.3l72.2,0c-0.7,7 0.2,14.2 2.6,20.8l3.5,11.7l0.1,0.2c3.5,9.5 10.1,17.8 18.7,23.3l25.2,16.2c1.1,0.7 1.9,1.8 2.4,3l3.8,10.8l-3.9,1.3c-1.4,0.5 -2.2,2 -1.8,3.4c0.4,1.2 1.4,1.9 2.6,1.9c0.3,0 0.6,0 0.8,-0.1l93.2,-29.9c1.4,-0.5 2.2,-2 1.8,-3.4c-0.6,-1.7 -2.2,-2.5 -3.6,-2zm-61.6,-270.4c7.1,0 12.8,5.7 12.8,12.8l0,55.6l-181.7,0l0,-55.6c0,-7.1 5.7,-12.8 12.8,-12.8l156.1,0zm-168.9,194.9l0,-121l181.7,0l0,68.6c-1.5,0.1 -3,0.3 -4.5,0.8l-9.4,3c0,0 -0.1,0 -0.1,0l0,-48.6c0,-6.1 -5,-11.1 -11.1,-11.1l-26.4,0c-6.1,0 -11.1,5 -11.1,11.1l0,50.2l-5.2,-17c1.3,-1.8 1.9,-4 1.9,-6.2l0,-26.5c0,-6.1 -5,-11.1 -11.1,-11.1l-26.5,0c-6.1,0 -11.1,5 -11.1,11.1l0,26.5c0,6.1 5,11.1 11.1,11.1l4.6,0l2.3,7.4l-7,0c-6.1,0 -11.1,5 -11.1,11.1l0,26.5c0,6.1 5,11.1 11.1,11.1l12.9,0l-5,15.1l-0.1,0.2c0,0.1 -0.1,0.3 -0.1,0.4c0,0 0,0 -0.1,0l-73,0c-6.9,0.1 -12.7,-5.6 -12.7,-12.7zm143,-45c-0.5,-0.4 -1,-0.8 -1.5,-1.1l3.6,0l-0.9,0.3c-0.5,0.1 -0.9,0.4 -1.2,0.8zm7.3,-6.6l-13.7,0c-1.5,0 -2.7,1.2 -2.7,2.7c-2.1,-0.2 -4.3,0 -6.5,0.7l-2.8,0.9l0,-49.8c0,-3.1 2.5,-5.7 5.7,-5.7l26.5,0c3.1,0 5.7,2.5 5.7,5.7l0,48c-2.9,-0.7 -5.9,-0.7 -8.9,0.3l-0.4,0.1c0,-0.1 0,-0.1 0,-0.2c-0.2,-1.5 -1.4,-2.7 -2.9,-2.7zm-73.4,-26.3l4.2,13.5l-2.9,0c-3.1,0 -5.7,-2.5 -5.7,-5.7l0,-26.5c0,-3.1 2.5,-5.7 5.7,-5.7l26.5,0c3.1,0 5.7,2.5 5.7,5.7l0,21.2l-3.6,-11.7c-1.2,-4 -3.9,-7.3 -7.7,-9.3c-3.7,-2 -8,-2.3 -12,-1.1c-8.2,2.7 -12.7,11.4 -10.2,19.6zm18.7,61.3l-2.7,8.2l-14.7,0c-3.1,0 -5.7,-2.5 -5.7,-5.7l0,-26.5c0,-3.1 2.5,-5.7 5.7,-5.7l8.7,0l9.1,28.9c-0.2,0.4 -0.3,0.6 -0.4,0.8zm47,108.1c-0.8,-2.4 -2.4,-4.4 -4.6,-5.8l-25.2,-16.2c-7.5,-4.8 -13.4,-12.1 -16.5,-20.5l-3.5,-11.7l-0.1,-0.2c-2.4,-6.6 -3.1,-13.8 -2,-20.8c0.1,-0.9 0.3,-1.8 0.5,-2.7l7.4,-22.3l16.2,51.4c0.4,1.2 1.4,1.9 2.6,1.9c0.3,0 0.5,0 0.8,-0.1c1.4,-0.5 2.2,-2 1.8,-3.4l-38,-120.8c-1.6,-5.3 1.4,-11 6.6,-12.7c2.6,-0.8 5.4,-0.6 7.8,0.7c2.4,1.3 4.2,3.4 5,6.1l22.6,73.4c0.4,1.4 2,2.2 3.4,1.8c1.4,-0.4 2.2,-2 1.8,-3.4l-8.3,-26.8l8,-2.6c5.6,-1.8 11.8,1.3 13.7,6.9l5.4,15.8c0.4,1.1 1.4,1.8 2.6,1.8c0.3,0 0.6,0 0.9,-0.1c1.4,-0.5 2.2,-2 1.7,-3.5l-5.4,-15.8c-0.4,-1.1 -0.8,-2 -1.4,-3l8.6,-2.8c5.6,-1.8 11.8,1.3 13.7,6.9l3.4,10c0.4,1.1 1.4,1.8 2.6,1.8c0.3,0 0.6,0 0.9,-0.1c1.4,-0.5 2.2,-2 1.7,-3.5l-3.4,-10c-0.7,-2 -1.7,-3.8 -3,-5.3l8,-2.6c5.7,-1.8 11.7,1.1 13.7,6.8l23.4,67.5c1.9,5.4 2.6,11.1 2.2,16.9l-1.4,17.3c-0.1,1.4 0,2.8 0.4,4.2l2.8,11.5c0.1,0.4 0.3,0.7 0.5,1l-74.1,23.8l-3.8,-10.8z" id="svg_59"/>
   <path fill="#f0f5f9" d="m521.94529,457.59931l-0.1,-12.4l0,-2.4c0,-0.5 -0.1,-1 -0.4,-1.4c-0.7,-3.8 -2.6,-7.3 -5.4,-10c0.1,-0.3 0.2,-0.7 0.2,-1l-0.2,-8c0,-3.5 -1.5,-6.9 -3.9,-9.3c-2.3,-2.2 -5.3,-3.4 -8.3,-3.4c-1.9,0 -3.7,0.5 -5.4,1.4c-4.1,2.2 -6.7,6.7 -6.6,11.6l0.2,8c0,0.3 0.1,0.6 0.2,0.9c-2.8,2.8 -4.6,6.4 -5.2,10.3c-0.2,0.4 -0.3,0.8 -0.3,1.2l0,2.3c0,0 0,0 0,0l0,0.1l0,20.8l-4.8,0c-4.1,0 -7.5,3.5 -7.5,7.8l0,36.3c0,1.5 1.2,2.7 2.7,2.7s2.7,-1.2 2.7,-2.7l0,-36.3c0,-1.3 0.9,-2.4 2,-2.4l4.8,0l0.1,185.4l0.2,0c0.1,0.3 0.2,0.6 0.3,0.9l13.4,29.1c0.7,1.6 2.3,2.6 4,2.6c1.8,0 3.3,-1 4,-2.7l12.8,-29.3c0.1,-0.3 0.2,-0.6 0.3,-1l0.2,0l-0.1,-93c0,-0.2 0,-0.3 0,-0.5c0,-0.2 0,-0.3 0,-0.5l0,-9.1c0,-0.2 0.1,-0.4 0.1,-0.5c0,-0.2 0,-0.4 -0.1,-0.5l-0.1,-95.1l0.2,0.1zm-17.4,225.1l-11.7,-25.4l22.9,-0.2l-11.2,25.6zm11.8,-237.5l0,7l-24.2,0.3l-0.1,-7l0,-0.1c0,-3.7 1.3,-7.2 3.8,-9.7l16.6,-0.2c2.5,2.5 3.9,6 3.9,9.7l0,0zm-15.3,-29.4c0.9,-0.5 1.9,-0.7 2.8,-0.8c1.7,-0.1 3.2,0.6 4.5,1.9c1.4,1.4 2.3,3.4 2.3,5.5l0.2,7.6l-13.4,0.1l-0.2,-7.6c0,-2.8 1.5,-5.4 3.8,-6.7zm15.4,235.6l-24.3,0.3l0,-85.6l24.3,0l0,85.3zm-24.3,-90.8l0,-4.7l24.3,0l0,4.7l-24.3,0zm24.3,-10.1l-24.3,0l0,-78.7l24.3,0l0,78.7zm-0.1,-84.2l-24.3,0l0,-8.4l24.3,-0.3l0,8.7z" id="svg_60"/>
   <path fill="#f0f5f9" d="m948.04529,605.59931c-8.8,0 -16,7.2 -16,16c0,2.3 0.5,4.5 1.5,6.6c-0.9,2 -1.5,4.3 -1.5,6.6c0,8.8 7.2,16 16,16c8.8,0 16,-7.2 16,-16c0,-2.4 -0.5,-4.6 -1.4,-6.6c1,-2.1 1.4,-4.3 1.4,-6.6c0,-8.8 -7.2,-16 -16,-16zm0,5.5c5.8,0 10.5,4.7 10.5,10.5c0,0.4 0,0.8 -0.1,1.2c-2.8,-2.4 -6.5,-3.9 -10.5,-3.9c-4,0 -7.7,1.5 -10.5,3.9c0,-0.4 -0.1,-0.8 -0.1,-1.2c0.1,-5.8 4.9,-10.5 10.7,-10.5zm0,34.3c-5.8,0 -10.5,-4.7 -10.5,-10.5c0,-5.8 4.7,-10.5 10.5,-10.5c5.8,0 10.5,4.7 10.5,10.5c0,5.8 -4.7,10.5 -10.5,10.5z" id="svg_61"/>
   <path fill="#f0f5f9" d="m907.34529,368.09931l0,68.8c0,5.6 4.5,10.1 10.1,10.1l101.3,0c5.6,0 10.1,-4.5 10.1,-10.1l0,-68.8c0,-5.6 -4.5,-10.1 -10.1,-10.1l-101.3,0c-5.5,0 -10.1,4.5 -10.1,10.1zm116,0l0,68.8c0,2.6 -2.1,4.6 -4.6,4.6l-101.3,0c-2.6,0 -4.6,-2.1 -4.6,-4.6l0,-68.8c0,-2.6 2.1,-4.6 4.6,-4.6l101.3,0c2.6,-0.1 4.6,2 4.6,4.6z" id="svg_62"/>
   <path fill="#f0f5f9" d="m937.34529,458.79931l-19.8,0c-4.4,0 -7.9,3.5 -7.9,7.9l0,10.1c0,4.4 3.5,7.9 7.9,7.9l19.8,0c4.4,0 7.9,-3.5 7.9,-7.9l0,-10.1c0,-4.4 -3.5,-7.9 -7.9,-7.9zm2.4,18c0,1.4 -1.1,2.5 -2.5,2.5l-19.8,0c-1.4,0 -2.5,-1.1 -2.5,-2.5l0,-10.1c0,-1.4 1.1,-2.5 2.5,-2.5l19.8,0c1.4,0 2.5,1.1 2.5,2.5l0,10.1z" id="svg_63"/>
   <path fill="#f0f5f9" d="m978.84529,458.79931l-19.8,0c-4.4,0 -7.9,3.5 -7.9,7.9l0,10.1c0,4.4 3.5,7.9 7.9,7.9l19.8,0c4.4,0 7.9,-3.5 7.9,-7.9l0,-10.1c0,-4.4 -3.6,-7.9 -7.9,-7.9zm2.4,18c0,1.4 -1.1,2.5 -2.5,2.5l-19.8,0c-1.4,0 -2.5,-1.1 -2.5,-2.5l0,-10.1c0,-1.4 1.1,-2.5 2.5,-2.5l19.8,0c1.4,0 2.5,1.1 2.5,2.5l0,10.1z" id="svg_64"/>
   <path fill="#f0f5f9" d="m1020.24529,458.79931l-19.8,0c-4.4,0 -7.9,3.5 -7.9,7.9l0,10.1c0,4.4 3.5,7.9 7.9,7.9l19.8,0c4.4,0 7.9,-3.5 7.9,-7.9l0,-10.1c0,-4.4 -3.5,-7.9 -7.9,-7.9zm2.5,18c0,1.4 -1.1,2.5 -2.5,2.5l-19.8,0c-1.4,0 -2.5,-1.1 -2.5,-2.5l0,-10.1c0,-1.4 1.1,-2.5 2.5,-2.5l19.8,0c1.4,0 2.5,1.1 2.5,2.5l0,10.1z" id="svg_65"/>
   <path fill="#f0f5f9" d="m937.34529,494.59931l-19.8,0c-4.4,0 -7.9,3.5 -7.9,7.9l0,10.1c0,4.4 3.5,7.9 7.9,7.9l19.8,0c4.4,0 7.9,-3.5 7.9,-7.9l0,-10.1c0,-4.3 -3.5,-7.9 -7.9,-7.9zm2.4,18c0,1.4 -1.1,2.5 -2.5,2.5l-19.8,0c-1.4,0 -2.5,-1.1 -2.5,-2.5l0,-10.1c0,-1.4 1.1,-2.5 2.5,-2.5l19.8,0c1.4,0 2.5,1.1 2.5,2.5l0,10.1z" id="svg_66"/>
   <path fill="#f0f5f9" d="m978.84529,494.59931l-19.8,0c-4.4,0 -7.9,3.5 -7.9,7.9l0,10.1c0,4.4 3.5,7.9 7.9,7.9l19.8,0c4.4,0 7.9,-3.5 7.9,-7.9l0,-10.1c0,-4.3 -3.6,-7.9 -7.9,-7.9zm2.4,18c0,1.4 -1.1,2.5 -2.5,2.5l-19.8,0c-1.4,0 -2.5,-1.1 -2.5,-2.5l0,-10.1c0,-1.4 1.1,-2.5 2.5,-2.5l19.8,0c1.4,0 2.5,1.1 2.5,2.5l0,10.1z" id="svg_67"/>
   <path fill="#f0f5f9" d="m1020.24529,494.59931l-19.8,0c-4.4,0 -7.9,3.5 -7.9,7.9l0,10.1c0,4.4 3.5,7.9 7.9,7.9l19.8,0c4.4,0 7.9,-3.5 7.9,-7.9l0,-10.1c0,-4.3 -3.5,-7.9 -7.9,-7.9zm2.5,18c0,1.4 -1.1,2.5 -2.5,2.5l-19.8,0c-1.4,0 -2.5,-1.1 -2.5,-2.5l0,-10.1c0,-1.4 1.1,-2.5 2.5,-2.5l19.8,0c1.4,0 2.5,1.1 2.5,2.5l0,10.1z" id="svg_68"/>
   <path fill="#f0f5f9" d="m937.34529,530.49931l-19.8,0c-4.4,0 -7.9,3.5 -7.9,7.9l0,10.1c0,4.4 3.5,7.9 7.9,7.9l19.8,0c4.4,0 7.9,-3.5 7.9,-7.9l0,-10.1c0,-4.4 -3.5,-7.9 -7.9,-7.9zm2.4,18c0,1.4 -1.1,2.5 -2.5,2.5l-19.8,0c-1.4,0 -2.5,-1.1 -2.5,-2.5l0,-10.1c0,-1.4 1.1,-2.5 2.5,-2.5l19.8,0c1.4,0 2.5,1.1 2.5,2.5l0,10.1z" id="svg_69"/>
   <path fill="#f0f5f9" d="m978.84529,530.49931l-19.8,0c-4.4,0 -7.9,3.5 -7.9,7.9l0,10.1c0,4.4 3.5,7.9 7.9,7.9l19.8,0c4.4,0 7.9,-3.5 7.9,-7.9l0,-10.1c0,-4.4 -3.6,-7.9 -7.9,-7.9zm2.4,18c0,1.4 -1.1,2.5 -2.5,2.5l-19.8,0c-1.4,0 -2.5,-1.1 -2.5,-2.5l0,-10.1c0,-1.4 1.1,-2.5 2.5,-2.5l19.8,0c1.4,0 2.5,1.1 2.5,2.5l0,10.1z" id="svg_70"/>
   <path fill="#f0f5f9" d="m1020.24529,530.49931l-19.8,0c-4.4,0 -7.9,3.5 -7.9,7.9l0,10.1c0,4.4 3.5,7.9 7.9,7.9l19.8,0c4.4,0 7.9,-3.5 7.9,-7.9l0,-10.1c0,-4.4 -3.5,-7.9 -7.9,-7.9zm2.5,18c0,1.4 -1.1,2.5 -2.5,2.5l-19.8,0c-1.4,0 -2.5,-1.1 -2.5,-2.5l0,-10.1c0,-1.4 1.1,-2.5 2.5,-2.5l19.8,0c1.4,0 2.5,1.1 2.5,2.5l0,10.1z" id="svg_71"/>
   <path fill="#f0f5f9" d="m972.64529,278.79931l-31,0c-1.5,0 -2.7,1.2 -2.7,2.7c0,1.5 1.2,2.7 2.7,2.7l31,0c1.5,0 2.7,-1.2 2.7,-2.7c0,-1.5 -1.2,-2.7 -2.7,-2.7z" id="svg_72"/>
   <path fill="#f0f5f9" d="m993.94529,278.79931l-9,0c-1.5,0 -2.7,1.2 -2.7,2.7c0,1.5 1.2,2.7 2.7,2.7l9,0c1.5,0 2.7,-1.2 2.7,-2.7c0.1,-1.5 -1.1,-2.7 -2.7,-2.7z" id="svg_73"/>
   <path fill="#f0f5f9" d="m972.64529,295.19931l-31,0c-1.5,0 -2.7,1.2 -2.7,2.7c0,1.5 1.2,2.7 2.7,2.7l31,0c1.5,0 2.7,-1.2 2.7,-2.7c0,-1.4 -1.2,-2.7 -2.7,-2.7z" id="svg_74"/>
   <path fill="#f0f5f9" d="m993.94529,295.19931l-9,0c-1.5,0 -2.7,1.2 -2.7,2.7c0,1.5 1.2,2.7 2.7,2.7l9,0c1.5,0 2.7,-1.2 2.7,-2.7c0.1,-1.4 -1.1,-2.7 -2.7,-2.7z" id="svg_75"/>
   <path fill="#f0f5f9" d="m972.64529,311.69931l-31,0c-1.5,0 -2.7,1.2 -2.7,2.7c0,1.5 1.2,2.7 2.7,2.7l31,0c1.5,0 2.7,-1.2 2.7,-2.7c0,-1.5 -1.2,-2.7 -2.7,-2.7z" id="svg_76"/>
   <path fill="#f0f5f9" d="m993.94529,311.69931l-9,0c-1.5,0 -2.7,1.2 -2.7,2.7c0,1.5 1.2,2.7 2.7,2.7l9,0c1.5,0 2.7,-1.2 2.7,-2.7c0.1,-1.5 -1.1,-2.7 -2.7,-2.7z" id="svg_77"/>
   <path fill="#f0f5f9" d="m972.64529,328.09931l-31,0c-1.5,0 -2.7,1.2 -2.7,2.7s1.2,2.7 2.7,2.7l31,0c1.5,0 2.7,-1.2 2.7,-2.7s-1.2,-2.7 -2.7,-2.7z" id="svg_78"/>
   <path fill="#f0f5f9" d="m993.94529,328.09931l-9,0c-1.5,0 -2.7,1.2 -2.7,2.7s1.2,2.7 2.7,2.7l9,0c1.5,0 2.7,-1.2 2.7,-2.7s-1.1,-2.7 -2.7,-2.7z" id="svg_79"/>
   <path fill="#f0f5f9" d="m960.74529,418.39931c0.5,0.7 1.3,1 2.1,1c0.6,0 1.2,-0.2 1.7,-0.6l26.6,-21.5c1.2,-0.9 1.4,-2.7 0.4,-3.8c-0.9,-1.2 -2.7,-1.4 -3.8,-0.4l-26.6,21.5c-1.2,1 -1.3,2.7 -0.4,3.8z" id="svg_80"/>
   <path fill="#f0f5f9" d="m938.64529,420.19931c0.6,0 1.2,-0.2 1.7,-0.6l46.2,-38.5c1.2,-1 1.3,-2.7 0.3,-3.8c-1,-1.2 -2.7,-1.3 -3.8,-0.3l-46.2,38.5c-1.2,1 -1.3,2.7 -0.3,3.8c0.5,0.6 1.3,0.9 2.1,0.9z" id="svg_81"/>
   <path fill="#f0f5f9" d="m922.84529,247.39931c-1.4,1.3 -2.4,3 -2.5,5c-1.5,21.3 -1.9,42.8 -1.3,64.2l-6,0c-12.3,0 -22.4,10 -22.4,22.4l0,25.9l0,196.1l0,25.9c0,12.3 10,22.4 22.4,22.4l3.4,0l0,42.7c0,6.8 5.6,12.4 12.4,12.4l81.9,0c6.8,0 12.4,-5.6 12.4,-12.4l0,-43.1c0.4,0.2 0.8,0.4 1.3,0.4c12.3,0 22.4,-10 22.4,-22.4l0,-25.9l0,-196.2l0,-25.8c0,-12.3 -10,-22.4 -22.4,-22.4l-7.2,0c-0.5,-15.9 -0.4,-31.9 0.3,-47.7l15.3,0l-0.1,-2.8c-0.3,-11.3 -9.7,-20.5 -21,-20.6c0,0 0,0 -0.1,0l-0.1,0l-84,0l-1.6,0c-1.2,0 -2.4,0.8 -3.1,1.9zm-9.7,356.4c-9.3,0 -16.9,-7.6 -16.9,-16.9l0,-11.3c4.1,4.7 10.2,7.8 16.9,7.8l3.4,0l0,20.4l-3.4,0zm97.7,55.2l-81.9,0c-3.8,0 -7,-3.1 -7,-7l0,-68.7l95.8,0l0,68.7c0.1,3.9 -3.1,7 -6.9,7zm30.6,-72.1c0,9.3 -7.6,16.9 -16.9,16.9c-0.5,0 -0.9,0.1 -1.3,0.4l0,-20.8l1.3,0c6.7,0 12.8,-3 16.9,-7.8l0,11.3zm-16.9,-264.8c9.3,0 16.9,7.6 16.9,16.9l0,25.9l0,196.1c0,9.3 -7.6,16.9 -16.9,16.9l-3.3,0c-0.3,-0.1 -0.5,-0.1 -0.8,-0.1s-0.5,0.1 -0.8,0.1l-106.5,0c-9.3,0 -16.9,-7.6 -16.9,-16.9l0,-196.2l0,-25.8c0,-9.3 7.6,-16.9 16.9,-16.9l6.2,0c0.3,6.7 0.6,13.4 1.1,20.1c0.3,3.8 3.6,6.9 7.4,6.9c0,0 0,0 0,0l84.1,0c0,0 0,0 0,0c1.9,0 3.7,-0.8 5,-2.1c1.3,-1.4 1.9,-3.2 1.8,-5.1c-0.5,-6.5 -0.8,-13.1 -1.1,-19.7l6.9,0l0,-0.1zm-11.4,20c0,0.5 -0.2,0.8 -0.3,1c-0.2,0.2 -0.5,0.4 -1,0.4l-84.1,0c-1,0 -1.9,-0.8 -2,-1.8c-2.1,-28.9 -2.1,-58.1 -0.1,-87c2.3,3.4 3.6,7.4 3.7,11.5l0.1,2.7l82.8,0c-1.1,24.3 -0.8,49 0.9,73.2zm-1.3,-91.1c7.5,0 13.8,5.4 15.3,12.5l-11.9,0c0,0 0,0 0,0c0,0 0,0 0,0l-80.5,0c-0.5,-4.5 -2.2,-8.8 -4.9,-12.5l82,0z" id="svg_82"/>
   <path fill="#f0f5f9" d="m810.14529,848.39931c6.8,0 12.4,-5.6 12.4,-12.4l0,-47.1c0,-0.3 -0.1,-0.7 -0.2,-1l28,0c2.7,0 4.8,-2.2 4.8,-4.8l0,-42.9c0,-0.1 0,-0.2 0,-0.3l14.5,-14.2c0.8,-0.8 1.2,-1.8 1.2,-2.9c0,-1.1 -0.4,-2.1 -1.2,-2.9l-4.9,-4.7c-1.5,-1.5 -4.2,-1.5 -5.7,0l-3.9,3.9l0,-0.2c0,-2.7 -2.2,-4.8 -4.8,-4.8l-27.8,0l0,-192c0,-6.8 -5.6,-12.4 -12.4,-12.4l-28.1,0l0,-3.9c0,-4.3 -3.5,-7.9 -7.9,-7.9l-28.7,0c-4.3,0 -7.9,3.5 -7.9,7.9l0,3.9l-13,0l0,-3.9c0,-4.3 -3.5,-7.9 -7.9,-7.9l-28.7,0c-4.3,0 -7.9,3.5 -7.9,7.9l0,3.9l-13,0l0,-3.9c0,-4.3 -3.5,-7.9 -7.9,-7.9l-28.7,0c-4.3,0 -7.9,3.5 -7.9,7.9l0,3.9l-15.1,0l-7.6,0l-27.6,0c-8.7,0 -15.8,7.1 -15.8,15.8l0,14.1l-4.4,0c-4.4,0 -7.9,3.6 -7.9,7.9l0,0.4c0,4.4 3.6,7.9 7.9,7.9l4.8,0l0,33.6l-4.8,0c-4.4,0 -7.9,3.6 -7.9,7.9l0,0.4c0,4.4 3.6,7.9 7.9,7.9l4.8,0l0,33.6l-4.8,0c-4.4,0 -7.9,3.6 -7.9,7.9l0,0.4c0,4.4 3.6,7.9 7.9,7.9l4.8,0l0,33.6l-4.8,0c-4.4,0 -7.9,3.6 -7.9,7.9l0,0.4c0,4.4 3.6,7.9 7.9,7.9l4.8,0l0,33.6l-4.8,0c-4.4,0 -7.9,3.6 -7.9,7.9l0,0.4c0,4.4 3.6,7.9 7.9,7.9l4.8,0l0,33.6l-4.8,0c-4.4,0 -7.9,3.6 -7.9,7.9l0,0.4c0,4.4 3.6,7.9 7.9,7.9l4.8,0l0,28.4c0,8.7 7.1,15.8 15.8,15.8l35.2,0l0,-0.5l202.3,0l0,-0.1zm6.9,-59.5l0,47.1c0,3.8 -3.1,7 -7,7l-202.2,0l0,-5l190.2,0c6.8,0 12.4,-5.6 12.4,-12.4l0,-37c0,-0.2 0,-0.4 -0.1,-0.7l6.9,0c-0.1,0.3 -0.2,0.6 -0.2,1zm-19,-262.2c3.8,0 7,3.1 7,7l0,180.2l-19,0c-2.7,0 -4.8,2.2 -4.8,4.8l0,10.9l-152.7,0c-2.2,0 -4,1.8 -4,4l0,77c0,2.2 1.8,4 4,4l153.5,0c2.2,0 4,-1.8 4,-4l0,-22.8l19,0c-0.1,0.2 -0.1,0.4 -0.1,0.7l0,37c0,3.8 -3.1,7 -7,7l-190.1,0l0,-305.8l190.2,0zm-95.5,208.4l0,20l-34,0l0,-20l34,0zm41,0l0,20l-35.5,0l0,-20l35.5,0zm37.1,0l0,20l-31.6,0l0,-20l31.6,0zm-150.7,25.5l33.2,0l0,20l-33.2,0l0,-20zm38.6,0l34,0l0,20l-34,0l0,-20zm39.5,0l35.5,0l0,20l-35.5,0l0,-20zm41,0l31.6,0l0,20l-31.6,0l0,-20zm-85.9,-5.5l-33.2,0l0,-20l33.2,0l0,20zm-33.2,30.9l33.2,0l0,23.2l-33.2,0l0,-23.2zm38.6,0l34,0l0,23.2l-34,0l0,-23.2zm39.5,0l35.5,0l0,23.2l-35.5,0l0,-23.2zm41,0l31.6,0l0,23.2l-31.6,0l0,-23.2zm112.9,-66.1l2.9,2.8l-38.2,37.4l-18.4,-14.3l2.4,-3l15.4,12.4l35.9,-35.3zm-23.3,15.2l-12.9,12.7l-12.7,-10.2l-0.1,-0.1c-1.7,-1.2 -4.2,-0.9 -5.5,0.8l-4.2,5.2c-0.7,0.9 -1,2 -0.9,3.1c0.2,1.1 0.8,2.1 1.6,2.7l23.2,18.1l11.6,-11.4l0,15.5l-41,0l0,-41l41,0l0,4.6l-0.1,0zm11.1,-10.9l-5.6,5.5l0,0c0,-2.7 -2.2,-4.8 -4.8,-4.8l-42.3,0c-2.7,0 -4.8,2.2 -4.8,4.8l0,42.3c0,2.7 2.2,4.8 4.8,4.8l42.3,0c2.7,0 4.8,-2.2 4.8,-4.8l0,-21.1c0,-0.1 0,-0.2 0,-0.3l5.6,-5.5l0,37.3l-63.1,0l0,-63.1l63.1,0l0,4.4c0,0.2 0,0.4 0,0.5zm-39.6,-209.1c3.8,0 7,3.1 7,7l0,191.8l-6.6,0l0,-180.2c0,-6.8 -5.6,-12.4 -12.4,-12.4l-16,0l0,-6.2l28,0zm-64.6,-11.8l28.7,0c1.3,0 2.4,1.1 2.4,2.4l0,15.6l-33.5,0l0,-15.6c0,-1.3 1,-2.4 2.4,-2.4zm-7.9,11.8l0,6.2l-13,0l0,-6.2l13,0zm-49.5,-11.8l28.7,0c1.3,0 2.4,1.1 2.4,2.4l0,15.6l-33.5,0l0,-15.6c0,-1.3 1,-2.4 2.4,-2.4zm-7.9,11.8l0,6.2l-13,0l0,-6.2l13,0zm-49.5,-11.8l28.7,0c1.3,0 2.4,1.1 2.4,2.4l0,15.6l-33.5,0l0,-15.6c0,-1.3 1,-2.4 2.4,-2.4zm-7.9,11.8l0,6.2l-15.1,0l0,-6.2l15.1,0zm-73.2,32.7l0,-0.4c0,-1.4 1.1,-2.5 2.5,-2.5l25.2,0c1.4,0 2.5,1.1 2.5,2.5l0,0.4c0,1.4 -1.1,2.5 -2.5,2.5l-25.3,0c-1.3,0 -2.4,-1.1 -2.4,-2.5zm35.5,0l0,-0.4c0,-1.7 -0.5,-3.2 -1.4,-4.5c2.2,0.6 3.9,2.7 3.9,5.1c0,2.8 -2.1,5.1 -4.9,5.3c1.5,-1.3 2.4,-3.3 2.4,-5.5zm-35.5,49.8l0,-0.4c0,-1.4 1.1,-2.5 2.5,-2.5l25.2,0c1.4,0 2.5,1.1 2.5,2.5l0,0.4c0,1.4 -1.1,2.5 -2.5,2.5l-25.3,0c-1.3,0 -2.4,-1.1 -2.4,-2.5zm35.5,0l0,-0.4c0,-1.7 -0.5,-3.2 -1.4,-4.5c2.2,0.6 3.9,2.7 3.9,5.1c0,2.8 -2.1,5.1 -4.9,5.3c1.5,-1.3 2.4,-3.3 2.4,-5.5zm-35.5,49.8l0,-0.4c0,-1.4 1.1,-2.5 2.5,-2.5l25.2,0c1.4,0 2.5,1.1 2.5,2.5l0,0.4c0,1.4 -1.1,2.5 -2.5,2.5l-25.3,0c-1.3,0 -2.4,-1.2 -2.4,-2.5zm35.5,0l0,-0.4c0,-1.7 -0.5,-3.2 -1.4,-4.5c2.2,0.6 3.9,2.7 3.9,5.1c0,2.8 -2.1,5.1 -4.9,5.3c1.5,-1.3 2.4,-3.3 2.4,-5.5zm-35.5,49.8l0,-0.4c0,-1.4 1.1,-2.5 2.5,-2.5l25.2,0c1.4,0 2.5,1.1 2.5,2.5l0,0.4c0,1.4 -1.1,2.5 -2.5,2.5l-25.3,0c-1.3,-0.1 -2.4,-1.2 -2.4,-2.5zm35.5,0l0,-0.4c0,-1.6 -0.5,-3.2 -1.4,-4.5c2.2,0.6 3.9,2.7 3.9,5.1c0,2.8 -2.1,5.1 -4.9,5.3c1.5,-1.3 2.4,-3.3 2.4,-5.5zm-35.5,49.8l0,-0.4c0,-1.4 1.1,-2.5 2.5,-2.5l25.2,0c1.4,0 2.5,1.1 2.5,2.5l0,0.4c0,1.4 -1.1,2.5 -2.5,2.5l-25.3,0c-1.3,-0.1 -2.4,-1.2 -2.4,-2.5zm35.5,0l0,-0.4c0,-1.7 -0.5,-3.2 -1.4,-4.5c2.2,0.6 3.9,2.7 3.9,5.1c0,2.8 -2.1,5.1 -4.9,5.3c1.5,-1.3 2.4,-3.3 2.4,-5.5zm-35.5,49.8l0,-0.4c0,-1.4 1.1,-2.5 2.5,-2.5l25.2,0c1.4,0 2.5,1.1 2.5,2.5l0,0.4c0,1.4 -1.1,2.5 -2.5,2.5l-25.3,0c-1.3,-0.1 -2.4,-1.2 -2.4,-2.5zm35.5,0l0,-0.4c0,-1.7 -0.5,-3.2 -1.4,-4.5c2.2,0.6 3.9,2.7 3.9,5.1c0,2.8 -2.1,5.1 -4.9,5.3c1.5,-1.3 2.4,-3.3 2.4,-5.5zm-22.9,36.3l0,-28.4l12.4,0c2,2 4.8,3.2 7.7,3.2c6,0 10.8,-4.9 10.8,-10.8s-4.9,-10.8 -10.8,-10.8c-2.4,0 -4.7,0.8 -6.6,2.2l-13.5,0l0,-33.6l12.4,0c2,2 4.8,3.2 7.7,3.2c6,0 10.8,-4.9 10.8,-10.8s-4.9,-10.8 -10.8,-10.8c-2.4,0 -4.7,0.8 -6.5,2.2l-13.5,0l0,-33.6l12.4,0c2,2 4.8,3.2 7.7,3.2c6,0 10.8,-4.9 10.8,-10.8s-4.9,-10.8 -10.8,-10.8c-2.4,0 -4.7,0.8 -6.5,2.2l-13.5,0l0,-33.6l12.4,0c2,2 4.8,3.2 7.7,3.2c6,0 10.8,-4.9 10.8,-10.8s-4.9,-10.8 -10.8,-10.8c-2.4,0 -4.7,0.8 -6.6,2.2l-13.5,0l0,-33.6l12.4,0c2,2 4.8,3.2 7.7,3.2c6,0 10.8,-4.9 10.8,-10.8c0,-6 -4.9,-10.8 -10.8,-10.8c-2.4,0 -4.7,0.8 -6.6,2.2l-13.5,0l0,-33.6l12.4,0c2,2 4.8,3.2 7.7,3.2c6,0 10.8,-4.9 10.8,-10.8c0,-6 -4.9,-10.8 -10.8,-10.8c-2.4,0 -4.7,0.8 -6.6,2.2l-13.5,0l0,-14.1c0,-5.7 4.6,-10.3 10.3,-10.3l27.6,0l2.1,0l0,327.8l-2.1,0c-0.6,0 -1.1,0.2 -1.5,0.5l-26.1,0c-5.8,0 -10.5,-4.6 -10.5,-10.3z" id="svg_83"/>
   <path fill="#f0f5f9" d="m714.24529,706.39931c7.2,7.6 16.9,11.7 27.4,11.7c0.4,0 0.9,0 1.3,0c19.7,-0.7 35.6,-16.6 36.4,-36.3c0.2,-4.3 -0.4,-8.6 -1.7,-12.6l-0.8,-2.6l-31.3,9.7l8.6,-31.7l-2.6,-0.7c-4.2,-1.1 -8.6,-1.5 -13,-1.2c-18.8,1.5 -33.7,16.9 -34.6,35.7c-0.5,10.5 3.1,20.4 10.3,28zm59.7,-24.8c-0.6,16.8 -14.3,30.4 -31.1,31c-7.3,0.2 -14.3,-1.9 -20,-6.1l21.5,-24.4c0.4,0 0.9,-0.1 1.3,-0.2l27.7,-8.6c0.4,2.8 0.7,5.5 0.6,8.3zm-35,-33.5c0.9,-0.1 1.8,-0.1 2.7,-0.1c1.9,0 3.9,0.2 5.8,0.5l-6.7,24.7l-17.9,-19.1c4.6,-3.3 10.1,-5.5 16.1,-6zm-29.6,30.6c0.4,-8.2 3.9,-15.6 9.3,-21.1l20.6,22l-20.6,23.4c-0.1,-0.1 -0.3,-0.3 -0.4,-0.4c-6.2,-6.5 -9.3,-15 -8.9,-23.9z" id="svg_84"/>
   <path fill="#f0f5f9" d="m763.94529,631.09931l-2.6,-0.7l-9,33.3c-0.4,1.4 -0.1,2.8 0.8,3.9c0.8,1.1 2.2,1.8 3.6,1.8c0,0 0,0 0,0c0.5,0 0.9,-0.1 1.3,-0.2l33,-10.2l-0.8,-2.6c-3.9,-12.2 -13.9,-21.9 -26.3,-25.3zm-5.9,32.4l7.1,-26.3c8.5,3.1 15.5,9.8 18.9,18.2l-26,8.1z" id="svg_85"/>
   <path fill="#f0f5f9" d="m625.84529,611.29931c-1.5,0 -2.7,1.2 -2.7,2.7c0,1.5 1.2,2.7 2.7,2.7l84.7,0c1.5,0 2.7,-1.2 2.7,-2.7c0,-1.5 -1.2,-2.7 -2.7,-2.7l-5.3,0l0,-52.1l3.1,3.9c0.9,1.2 2.6,1.4 3.8,0.4c1.2,-0.9 1.4,-2.6 0.4,-3.8l-10,-12.7l-10.1,12.8c-0.9,1.2 -0.7,2.9 0.4,3.8c0.5,0.4 1.1,0.6 1.7,0.6c0.8,0 1.6,-0.4 2.1,-1l3.1,-3.9l0,52.1l-17.1,0l0,-43l3.1,3.9c0.9,1.2 2.6,1.4 3.8,0.4c1.2,-0.9 1.4,-2.6 0.4,-3.8l-9.9,-12.8l-10.1,12.8c-0.9,1.2 -0.7,2.9 0.4,3.8c0.5,0.4 1.1,0.6 1.7,0.6c0.8,0 1.6,-0.4 2.1,-1l3.1,-3.9l0,43l-15.4,0l0,-32.6l3.1,3.9c0.9,1.2 2.6,1.4 3.8,0.4c1.2,-0.9 1.4,-2.6 0.4,-3.8l-10.1,-12.8l-10.1,12.8c-0.9,1.2 -0.7,2.9 0.4,3.8c0.5,0.4 1.1,0.6 1.7,0.6c0.8,0 1.6,-0.4 2.1,-1l3.1,-3.9l0,32.6l-10.9,0l0,-10.4l3.9,0c1.3,0 2.4,-0.7 3,-1.9c0.6,-1.1 0.4,-2.5 -0.4,-3.5l-13.4,-16.9l-13.4,16.9c-0.8,1 -0.9,2.3 -0.4,3.5c0.6,1.1 1.7,1.9 3,1.9l3.9,0l0,10.4l-5.7,0l0,-0.1zm8.5,-15.9c-0.2,0 -0.4,0 -0.5,0.1c-0.2,0 -0.3,-0.1 -0.5,-0.1l-1.1,0l6.3,-8l6.3,8l-1.1,0c-0.2,0 -0.4,0 -0.5,0.1c-0.2,0 -0.3,-0.1 -0.5,-0.1c-1.5,0 -2.7,1.2 -2.7,2.7l0,13.2l-3,0l0,-13.2c0.1,-1.4 -1.2,-2.7 -2.7,-2.7z" id="svg_86"/>
   <path fill="#f0f5f9" d="m730.34529,564.59931l15.9,0c1.5,0 2.7,-1.2 2.7,-2.7c0,-1.5 -1.2,-2.7 -2.7,-2.7l-15.9,0c-1.5,0 -2.7,1.2 -2.7,2.7c0,1.5 1.2,2.7 2.7,2.7z" id="svg_87"/>
   <path fill="#f0f5f9" d="m730.34529,575.69931l53,0c1.5,0 2.7,-1.2 2.7,-2.7c0,-1.5 -1.2,-2.7 -2.7,-2.7l-53,0c-1.5,0 -2.7,1.2 -2.7,2.7c0,1.5 1.2,2.7 2.7,2.7z" id="svg_88"/>
   <path fill="#f0f5f9" d="m730.34529,586.09931l53,0c1.5,0 2.7,-1.2 2.7,-2.7s-1.2,-2.7 -2.7,-2.7l-53,0c-1.5,0 -2.7,1.2 -2.7,2.7s1.2,2.7 2.7,2.7z" id="svg_89"/>
   <path fill="#f0f5f9" d="m730.34529,596.49931l53,0c1.5,0 2.7,-1.2 2.7,-2.7c0,-1.5 -1.2,-2.7 -2.7,-2.7l-53,0c-1.5,0 -2.7,1.2 -2.7,2.7c0,1.5 1.2,2.7 2.7,2.7z" id="svg_90"/>
   <path fill="#f0f5f9" d="m730.34529,606.89931l53,0c1.5,0 2.7,-1.2 2.7,-2.7s-1.2,-2.7 -2.7,-2.7l-53,0c-1.5,0 -2.7,1.2 -2.7,2.7s1.2,2.7 2.7,2.7z" id="svg_91"/>
   <path fill="#f0f5f9" d="m730.34529,617.29931l53,0c1.5,0 2.7,-1.2 2.7,-2.7c0,-1.5 -1.2,-2.7 -2.7,-2.7l-53,0c-1.5,0 -2.7,1.2 -2.7,2.7c0,1.5 1.2,2.7 2.7,2.7z" id="svg_92"/>
   <path fill="#f0f5f9" d="m682.64529,654.89931l-53.1,0c-1.5,0 -2.7,1.2 -2.7,2.7c0,1.5 1.2,2.7 2.7,2.7l53.1,0c1.5,0 2.7,-1.2 2.7,-2.7c0,-1.5 -1.2,-2.7 -2.7,-2.7z" id="svg_93"/>
   <path fill="#f0f5f9" d="m682.64529,673.49931l-53.1,0c-1.5,0 -2.7,1.2 -2.7,2.7c0,1.5 1.2,2.7 2.7,2.7l53.1,0c1.5,0 2.7,-1.2 2.7,-2.7c0,-1.5 -1.2,-2.7 -2.7,-2.7z" id="svg_94"/>
   <path fill="#f0f5f9" d="m682.64529,692.19931l-53.1,0c-1.5,0 -2.7,1.2 -2.7,2.7s1.2,2.7 2.7,2.7l53.1,0c1.5,0 2.7,-1.2 2.7,-2.7s-1.2,-2.7 -2.7,-2.7z" id="svg_95"/>
   <path fill="#f0f5f9" d="m1133.84529,64.39931l-93.1,28.8c-1.3,0.4 -2.2,-0.3 -2.5,-0.6c-0.3,-0.3 -1.1,-1.2 -0.7,-2.5l25.5,-94l-2.6,-0.7c-0.5,-0.1 -1,-0.3 -1.5,-0.4l-53,0c-31.9,8.1 -58.5,30.7 -71.9,61.7c-0.6,1.4 0,3 1.4,3.6c1.4,0.6 3,0 3.6,-1.4c5.9,-13.8 14.6,-25.8 25.3,-35.5l68.3,72.9l-68.3,77.6c-6.9,-6.2 -12.9,-13.3 -17.9,-21.3c-0.8,-1.3 -2.5,-1.7 -3.8,-0.9c-1.3,0.8 -1.7,2.5 -0.9,3.8c5.7,9.1 12.7,17.2 20.7,24c0.1,0.1 0.2,0.2 0.3,0.3c0.1,0.1 0.3,0.2 0.4,0.3c19.2,16.2 43.8,25.5 69.4,25.5c1.2,0 2.5,0 3.7,-0.1c55.7,-1.9 101,-47.1 103.1,-102.8c0.5,-12.2 -1.1,-24.3 -4.7,-35.8l-0.8,-2.5zm-101.5,23.8l-64,-68.4c15.6,-12.7 34.8,-20.7 55.6,-22.4c10.9,-0.9 21.8,0 32.3,2.5l-23.9,88.3zm101.5,14.4c-2,52.9 -45,95.7 -97.9,97.6c-24.8,0.9 -48.8,-7.5 -67.6,-22.7l69.5,-79c1.4,0.4 3,0.4 4.5,-0.1l87.8,-27.2c2.9,10.2 4.1,20.7 3.7,31.4z" id="svg_96"/>
   <path fill="#f0f5f9" d="m1127.14529,-5.00069l-8.5,0c15.3,12.1 27.1,28.4 33.5,47.1l-87.8,27.2c-0.3,0.1 -0.5,0.1 -0.8,0.1c0,0 0,0 0,0c-0.8,0 -1.5,-0.4 -2,-1c-0.3,-0.4 -0.7,-1.2 -0.4,-2.2l19.2,-71.2l-5.6,0l-18.9,69.8c-0.7,2.4 -0.2,5 1.4,7c1.5,2 3.9,3.2 6.4,3.2c0,0 0,0 0,0c0.8,0 1.6,-0.1 2.4,-0.4l93,-28.9l-0.8,-2.6c-5.8,-18.7 -16.8,-35.3 -31.1,-48.1z" id="svg_97"/>
   <path fill="#f0f5f9" d="m1075.64529,174.19931c0.4,0 0.8,-0.1 1.2,-0.3c11.1,-5.6 20.7,-13.9 27.9,-24c5.8,-8.1 9.9,-17.1 12.2,-26.8c0.4,-1.5 -0.5,-2.9 -2,-3.3c-1.5,-0.4 -2.9,0.5 -3.3,2c-2.2,9 -6,17.4 -11.4,24.9c-6.7,9.3 -15.7,17.1 -26,22.3c-1.3,0.7 -1.9,2.3 -1.2,3.7c0.7,1 1.6,1.5 2.6,1.5z" id="svg_98"/>
   <path fill="#f0f5f9" d="m1058.24529,180.49931c0.2,0 0.4,0 0.6,-0.1c2.4,-0.5 4.8,-1.2 7.2,-2c1.4,-0.5 2.2,-2 1.7,-3.4c-0.5,-1.4 -2,-2.2 -3.4,-1.7c-2.2,0.7 -4.5,1.4 -6.7,1.9c-1.5,0.3 -2.4,1.8 -2.1,3.3c0.4,1.2 1.5,2 2.7,2z" id="svg_99"/>
   <path fill="#f0f5f9" d="m873.44529,107.59931l-21.9,0l0,42.2l21.9,0l0,-42.2zm-5.4,36.7l-11,0l0,-31.3l11,0l0,31.3z" id="svg_100"/>
   <path fill="#f0f5f9" d="m899.24529,92.29931l-21.9,0l0,57.4l21.9,0l0,-57.4zm-5.4,52l-11,0l0,-46.5l11,0l0,46.5z" id="svg_101"/>
   <path fill="#f0f5f9" d="m903.24529,149.79931l21.8,0l0,-71.5l-21.9,0l0,71.5l0.1,0zm5.4,-66.1l11,0l0,60.6l-11,0l0,-60.6z" id="svg_102"/>
   <path fill="#f0f5f9" d="m950.84529,62.99931l-21.8,0l0,86.7l21.9,0l0,-86.7l-0.1,0zm-5.4,81.3l-11,0l0,-75.8l11,0l0,75.8z" id="svg_103"/>
   <path fill="#f0f5f9" d="m976.64529,47.19931l-21.9,0l0,102.6l21.9,0l0,-102.6zm-5.4,97.1l-11,0l0,-91.7l11,0l0,91.7z" id="svg_104"/>
   <path fill="#f0f5f9" d="m899.04529,50.09931c-0.1,1.5 1,2.8 2.5,3l7.5,0.7l-56,36.7c-1.3,0.8 -1.6,2.5 -0.8,3.8c0.5,0.8 1.4,1.2 2.3,1.2c0.5,0 1,-0.1 1.5,-0.4l56,-36.7l-2.4,7.1c-0.5,1.4 0.3,3 1.7,3.4c0.3,0.1 0.6,0.1 0.9,0.1c1.1,0 2.2,-0.7 2.6,-1.9l5.9,-17.8l-18.7,-1.7c-1.5,-0.1 -2.8,1 -3,2.5z" id="svg_105"/>
   <path fill="#f0f5f9" d="m660.04529,456.59931l165,0c9.3,0 16.8,-7.5 16.8,-16.8l0,-84.1c0,-0.5 -0.1,-0.9 -0.3,-1.3l34.1,-45.7l3.1,-4.2c5,-6.6 3.6,-16.1 -3,-21.1l-2.8,-2.1c-6.6,-5 -16.1,-3.6 -21.1,3l-2.2,3l-5.7,7.6c0,0 0,0 0,0s0,0 0,0l-2.1,2.8l0,-81.7c0,-9.3 -7.5,-16.8 -16.8,-16.8l-23.8,0l0,-2.2c0,-2.9 -2.4,-5.3 -5.3,-5.3l-16,0l0,-12.9c0,-2.9 -2.4,-5.3 -5.3,-5.3l-64.2,0c-2.9,0 -5.3,2.4 -5.3,5.3l0,12.9l-16,0c-2.9,0 -5.3,2.4 -5.3,5.3l0,2.2l-23.8,0c-9.3,0 -16.8,7.5 -16.8,16.8l0,223.7c0,9.3 7.5,16.9 16.8,16.9zm159.9,-129.6l-43.8,58.5l0.5,0.3l-4.9,23.2l0,0.2c-0.3,2.7 0.7,5.2 2.7,6.7c1.2,0.9 2.6,1.4 4.1,1.4c1,0 2.1,-0.2 3.1,-0.7l21.1,-11.4l0.5,0.3l16.6,-22.2l0,48.4c0,1.6 -1.3,2.9 -2.9,2.9l-148.7,0c-1.6,0 -2.9,-1.3 -2.9,-2.9l0,-197c0,-1.6 1.3,-2.9 2.9,-2.9l148.6,0c1.6,0 2.9,1.3 2.9,2.9l0,91.3c0,0.4 0.1,0.7 0.2,1zm26.8,-26.6l1.3,1l-62.9,84l-1.3,-1l62.9,-84zm4.4,-6l18.2,13.6l-0.1,0.1c0,0 0,0 0,0l-1.2,1.5l-18.1,-13.6l1.2,-1.6zm-73.2,111.5l5.1,3.8l-3.8,2c-0.6,0.3 -1.2,0.2 -1.7,-0.1c-0.4,-0.3 -0.6,-0.9 -0.6,-1.6l1,-4.1zm10.4,1l-9.2,-6.8l2.2,-10.5l2.6,1.9c0,0 0,0 0,0c0,0 0,0 0,0l13.8,10.3l-9.4,5.1zm13.7,-8.8l-12.6,-9.4l62.9,-84l12.6,9.4l-62.9,84zm67.6,-112.4l2.8,2.1c4.2,3.2 5.1,9.2 1.9,13.4l-1.8,2.4l-18.1,-13.6l1.8,-2.4c3.2,-4.2 9.2,-5.1 13.4,-1.9zm-180.3,-88.5l16,0c2.9,0 5.3,-2.4 5.3,-5.3l0,-12.9l63.9,0l0,12.9c0,2.9 2.4,5.3 5.3,5.3l16,0l0,18.3l-106.5,0l0,-18.3zm-40.7,18.9c0,-6.3 5.1,-11.4 11.4,-11.4l23.8,0l0,11c0,2.9 2.4,5.3 5.3,5.3l106.7,0c2.9,0 5.3,-2.4 5.3,-5.3l0,-11l23.9,0c6.3,0 11.4,5.1 11.4,11.4l0,87.2c0,0.5 0.1,0.9 0.3,1.3l-11.5,15.4l0,-85.4c0,-4.6 -3.7,-8.3 -8.3,-8.3l-148.7,0c-4.6,0 -8.3,3.7 -8.3,8.3l0,197.2c0,4.6 3.7,8.3 8.3,8.3l148.6,0c4.6,0 8.3,-3.7 8.3,-8.3l0,-53.6c0,-0.5 -0.2,-1.1 -0.4,-1.5l11.6,-15.6l0,78.5c0,6.3 -5.1,11.4 -11.4,11.4l-164.9,0c-6.3,0 -11.4,-5.1 -11.4,-11.4l0,-223.5z" id="svg_106"/>
   <circle fill="#f0f5f9" cx="673.545288" cy="239.499314" r="3.4" id="svg_107"/>
   <circle fill="#f0f5f9" cx="812.045288" cy="239.499314" r="3.4" id="svg_108"/>
   <circle fill="#f0f5f9" cx="673.545288" cy="426.899314" r="3.4" id="svg_109"/>
   <circle fill="#f0f5f9" cx="812.045288" cy="426.899314" r="3.4" id="svg_110"/>
   <path fill="#f0f5f9" d="m760.84529,183.39931l-37.6,0c-1.5,0 -2.7,1.2 -2.7,2.7c0,1.5 1.2,2.7 2.7,2.7l37.6,0c1.5,0 2.7,-1.2 2.7,-2.7c0,-1.5 -1.2,-2.7 -2.7,-2.7z" id="svg_111"/>
   <path fill="#f0f5f9" d="m713.84529,263.19931l-5,3.9l0,-3.1l-29.6,0l0,29.6l29.6,0l0,-19.5l8.4,-6.6c1.2,-0.9 1.4,-2.6 0.4,-3.8c-0.9,-1.2 -2.7,-1.4 -3.8,-0.5zm-10.5,24.9l-18.7,0l0,-18.7l18.7,0l0,2.1l-7.3,5.8l-3,-2.6c-1.1,-1 -2.9,-0.8 -3.8,0.3c-1,1.1 -0.8,2.9 0.3,3.8l6.4,5.5l7.4,-5.9l0,9.7z" id="svg_112"/>
   <path fill="#f0f5f9" d="m713.84529,319.99931l-5,3.9l0,-3.2l-29.6,0l0,29.6l29.6,0l0,-19.5l8.4,-6.6c1.2,-0.9 1.4,-2.6 0.4,-3.8c-0.9,-1.1 -2.7,-1.3 -3.8,-0.4zm-10.5,24.9l-18.7,0l0,-18.7l18.7,0l0,2.1l-7.3,5.8l-3,-2.6c-1.1,-1 -2.9,-0.8 -3.8,0.3c-1,1.1 -0.8,2.9 0.3,3.8l6.4,5.5l7.4,-5.9l0,9.7z" id="svg_113"/>
   <path fill="#f0f5f9" d="m713.84529,376.79931l-5,3.9l0,-3.2l-29.6,0l0,29.6l29.6,0l0,-19.5l8.4,-6.6c1.2,-0.9 1.4,-2.6 0.4,-3.8c-0.9,-1.1 -2.7,-1.3 -3.8,-0.4zm-10.5,24.9l-18.7,0l0,-18.7l18.7,0l0,2.1l-7.3,5.8l-3,-2.6c-1.1,-1 -2.9,-0.8 -3.8,0.3c-1,1.1 -0.8,2.9 0.3,3.8l6.4,5.5l7.4,-5.9l0,9.7z" id="svg_114"/>
   <path fill="#f0f5f9" d="m731.94529,275.79931l20.1,0c1.5,0 2.7,-1.2 2.7,-2.7c0,-1.5 -1.2,-2.7 -2.7,-2.7l-20.1,0c-1.5,0 -2.7,1.2 -2.7,2.7c0,1.5 1.2,2.7 2.7,2.7z" id="svg_115"/>
   <path fill="#f0f5f9" d="m795.04529,284.19931l-63.1,0c-1.5,0 -2.7,1.2 -2.7,2.7s1.2,2.7 2.7,2.7l63.1,0c1.5,0 2.7,-1.2 2.7,-2.7s-1.2,-2.7 -2.7,-2.7z" id="svg_116"/>
   <path fill="#f0f5f9" d="m731.94529,331.39931l20.1,0c1.5,0 2.7,-1.2 2.7,-2.7s-1.2,-2.7 -2.7,-2.7l-20.1,0c-1.5,0 -2.7,1.2 -2.7,2.7s1.2,2.7 2.7,2.7z" id="svg_117"/>
   <path fill="#f0f5f9" d="m795.04529,339.79931l-63.1,0c-1.5,0 -2.7,1.2 -2.7,2.7s1.2,2.7 2.7,2.7l63.1,0c1.5,0 2.7,-1.2 2.7,-2.7s-1.2,-2.7 -2.7,-2.7z" id="svg_118"/>
   <path fill="#f0f5f9" d="m752.04529,382.69931l-20.1,0c-1.5,0 -2.7,1.2 -2.7,2.7c0,1.5 1.2,2.7 2.7,2.7l20.1,0c1.5,0 2.7,-1.2 2.7,-2.7c0.1,-1.5 -1.2,-2.7 -2.7,-2.7z" id="svg_119"/>
   <path fill="#f0f5f9" d="m888.24529,892.29931l0.6,0.3c7.7,3.3 17.8,5 26.6,5.5c-28.4,14.2 -46.3,41.4 -50.2,76.9l5.5,0c2.9,-25 13.1,-45.6 29.2,-59.9l8.1,38l18,4.6l-14.8,13.6l1.3,3.8l5.8,0l-0.8,-2.2l19.5,-18l-24.4,-6.2l-8,-37.4c8.6,-6.5 18.5,-11.5 29.8,-14.6l4.3,78.4l5.5,0l-3.4,-62.3c6.1,8.1 16.1,13.4 27.5,13.4c11.3,0 21.3,-5.5 27.5,-14.1l-3.4,63l5.5,0l4.2,-78.6c4.1,1.5 8.1,2.5 12,3.1c6.7,2.6 12.9,6 18.6,10c-0.2,0.3 -0.3,0.6 -0.4,0.9l-8.1,38.1l-24.4,6.2l19.5,18l-0.8,2.2l5.8,0l1.3,-3.8l-14.8,-13.6l18,-4.6l8.6,-40c17.9,14.6 29.5,36.1 32.7,62l5.5,0c-3.9,-33.5 -21.1,-60.2 -47.7,-75c17.5,-1.6 29.7,-11.3 34,-15.3c2.3,-2.1 9.5,-9.2 8.1,-13.5c-0.8,-2.5 -3.9,-3.5 -6.9,-4.4c-0.8,-0.3 -1.6,-0.5 -2.1,-0.7c-3.2,-1.4 -5.7,-2.9 -7.8,-4.6c-9.1,-7.2 -5.9,-16.4 -2.1,-27c1,-2.9 2.1,-5.9 2.9,-8.9c5,-19.1 6.5,-36.1 4.6,-51.8c-3.9,-32.2 -24.6,-61 -52.7,-73.4c-26.3,-11.6 -59.5,-9.1 -84.5,6.5c-26.9,16.7 -44.7,49.9 -43.3,80.6c0.5,11.8 3.4,23.2 6.1,34.3c1.2,4.8 2.4,9.7 3.4,14.6c0.2,1.1 0.5,2.2 0.8,3.4c1.3,5.5 2.9,12.4 1.1,16.6c-1.4,3.3 -5.3,5 -9,6.6c-0.5,0.2 -0.9,0.4 -1.4,0.6c-0.4,0.2 -0.9,0.4 -1.3,0.6c-4.3,1.9 -12.3,5.4 -8.9,13.7c2.9,7.4 12.8,11.6 19.3,14.4zm108.6,2.1c-1.2,14.7 -13.5,26.3 -28.5,26.3c-15.3,0 -27.4,-11 -28.5,-25.3l0,0l13.2,-3.8l0,-16.9c4.9,1.2 10,1.9 15.3,1.9c4.6,0 9,-0.5 13.3,-1.4l0.6,15.2l14.5,3.9l0.1,0.1zm-89.9,-89.1c0,-4.8 0.5,-9.6 1.4,-14.2c9.6,-6.1 25.4,-19.3 32.8,-42.6c0,0 0,-0.1 0.1,-0.1c0.1,0 0.2,0 0.2,0.1c9.6,12.5 36.4,40.1 87.1,44.4c0.7,4.1 1.1,8.3 1.1,12.5c0,36.2 -27.6,65.7 -61.4,65.7c-33.7,-0.1 -61.3,-29.6 -61.3,-65.8zm-27,63.8c0.5,-0.2 0.9,-0.4 1.4,-0.6c0.4,-0.2 0.9,-0.4 1.3,-0.6c4.2,-1.9 9.4,-4.2 11.7,-9.4c2.6,-5.9 0.7,-13.7 -0.7,-20c-0.3,-1.2 -0.5,-2.3 -0.7,-3.3c-1,-5 -2.3,-9.9 -3.5,-14.8c-2.7,-10.8 -5.4,-22 -6,-33.3c-1.3,-28.9 15.4,-60 40.7,-75.7c23.5,-14.6 54.7,-17 79.4,-6.1c25.9,11.4 45.8,39.2 49.5,69.1c1.8,15 0.4,31.3 -4.5,49.7c-0.7,2.7 -1.7,5.6 -2.7,8.4c-3.9,11 -8.3,23.5 3.9,33.1c2.5,2 5.4,3.7 9,5.3c0.7,0.3 1.7,0.6 2.7,0.9c0.8,0.3 2.2,0.7 3,1.1c-1.1,2.5 -6.3,9.1 -15.7,14.6c-7.8,4.5 -19.2,8.7 -33.1,6.7c-4,-1.5 -8.1,-2.8 -12.3,-3.9c-0.3,-0.1 -0.6,-0.1 -0.9,-0.1l0,-0.2l-14.8,-4l-0.5,-12.4c0,0 0,0 0,0c27.8,-8.6 48.2,-36 48.2,-68.3c0,-4.1 -0.3,-8.1 -1,-12.1c2.6,0.1 5.1,0.2 7.8,0.2c1.5,0 2.7,-1.2 2.7,-2.7s-1.2,-2.7 -2.7,-2.7c-57.1,0 -86.3,-29.9 -96.2,-42.8c-1.3,-1.7 -3.4,-2.5 -5.5,-2.1c-2.1,0.4 -3.8,1.8 -4.4,3.8c-9.9,31.4 -37.2,43.3 -37.5,43.5c-1.4,0.6 -2,2.2 -1.5,3.6c0.4,1 1.4,1.7 2.5,1.7c0.4,0 0.7,-0.1 1.1,-0.2c0.2,-0.1 0.7,-0.3 1.7,-0.8c-0.5,3.5 -0.8,7.1 -0.8,10.7c0,31.6 19.4,58.4 46.3,67.7c-0.1,0.2 -0.1,0.5 -0.1,0.7l0,13.6l-11,3.2c-0.2,0 -0.5,0 -0.7,0.1c-3.3,0.8 -6.4,1.8 -9.5,2.8c-0.5,-0.5 -1.3,-0.8 -2,-0.7c-11.2,0.7 -25,-1.4 -33.5,-5l-0.6,-0.3c-5.7,-2.5 -14.3,-6.2 -16.5,-11.6c-1.1,-2.9 0,-4.2 6,-6.8z" id="svg_120"/>
   <path fill="#f0f5f9" d="m1030.44529,746.39931c0.5,0.9 1.4,1.3 2.4,1.3c0.5,0 0.9,-0.1 1.4,-0.4c1.3,-0.8 1.7,-2.4 1,-3.7c-0.6,-1 -1.2,-2 -1.9,-3c-0.8,-1.3 -2.5,-1.6 -3.8,-0.8c-1.3,0.8 -1.6,2.5 -0.8,3.8c0.6,0.9 1.2,1.8 1.7,2.8z" id="svg_121"/>
   <path fill="#f0f5f9" d="m986.64529,714.09931c0.2,0 19.7,3.1 35.6,20.9c0.5,0.6 1.3,0.9 2,0.9c0.6,0 1.3,-0.2 1.8,-0.7c1.1,-1 1.2,-2.7 0.2,-3.8c-17.2,-19.3 -38,-22.6 -38.9,-22.7c-1.5,-0.2 -2.9,0.8 -3.1,2.3c-0.2,1.5 0.9,2.9 2.4,3.1z" id="svg_122"/>
   <path fill="#f0f5f9" d="m964.54529,819.99931l0,-14.7l7,0l0,14.7c0,3.8 3.1,6.9 6.9,6.9l35.2,0c3.8,0 6.9,-3.1 6.9,-6.9l0,-20c0,-3.8 -3.1,-6.9 -6.9,-6.9l-35.2,0c-3.8,0 -6.8,3 -6.9,6.8l-7.1,0c-0.1,-3.7 -3.2,-6.8 -6.9,-6.8l-35.2,0c-3.8,0 -6.9,3.1 -6.9,6.9l0,20c0,3.8 3.1,6.9 6.9,6.9l35.2,0c3.9,0 7,-3.1 7,-6.9zm12.5,-20c0,-0.8 0.7,-1.5 1.5,-1.5l35.2,0c0.8,0 1.5,0.7 1.5,1.5l0,20c0,0.8 -0.7,1.5 -1.5,1.5l-35.2,0c-0.8,0 -1.5,-0.7 -1.5,-1.5l0,-20zm-56.2,20l0,-20c0,-0.8 0.7,-1.5 1.5,-1.5l35.2,0c0.8,0 1.5,0.7 1.5,1.5l0,20c0,0.8 -0.7,1.5 -1.5,1.5l-35.2,0c-0.8,0 -1.5,-0.7 -1.5,-1.5z" id="svg_123"/>
   <path fill="#f0f5f9" d="m1182.64529,867.49931l0,-8.6c0,-1 -0.2,-1.9 -0.7,-2.8c-0.5,-2.3 -3.3,-4 -13.6,-5.5c-7.8,-1.1 -17.8,-1.7 -28.3,-1.7c-0.3,0 -0.6,0 -0.9,0c-0.1,-0.7 -0.2,-1.4 -0.3,-2c-0.6,-2.4 -1.6,-4.6 -2.6,-6.6c-0.5,-1 -1,-2 -1.4,-3c-0.9,-2.1 -1.7,-5.2 -0.6,-7.5c0.2,-0.5 1,-1.4 1.7,-1.9c1.2,-0.8 1.6,-2.5 0.7,-3.8c-0.8,-1.2 -2.5,-1.6 -3.8,-0.7c-1.4,0.9 -2.8,2.6 -3.5,4c-1.6,3.3 -1.5,7.4 0.4,12c0.5,1.1 1,2.2 1.5,3.3c0.9,1.9 1.8,3.7 2.2,5.5c0.1,0.3 0.1,0.6 0.2,0.8c-8.1,0.2 -15.8,0.7 -21.9,1.6c-5.4,0.8 -8.8,1.6 -10.8,2.5c0,0 0,0 0,0c-0.1,0.1 -0.3,0.1 -0.4,0.2c-0.1,0.1 -0.2,0.1 -0.4,0.2c-0.6,0.4 -1.1,0.8 -1.4,1.2c-1,1.1 -1.6,2.5 -1.6,4.1l0,72.4c0,14.7 12,26.7 26.7,26.7l32.1,0c13.3,0 24.4,-9.8 26.4,-22.5c12.2,-0.1 22.1,-11 22.1,-24.4l0,-19c-0.1,-13.3 -9.8,-24.1 -21.8,-24.5zm0,17.1c2.6,0.4 4.8,3.6 4.8,7.4l0,19c0,3.8 -2.1,7 -4.8,7.4l0,-33.8zm-50.5,-30c0,0 0,0 0,0c-1.2,1 -1.5,2.7 -0.6,3.9c0.5,0.7 1.4,1.1 2.2,1.1c0.6,0 1.1,-0.2 1.6,-0.5c1.5,-1.1 2.5,-2.7 3.2,-4.5c0.5,0 1,0 1.5,0c16.8,0 28.4,1.5 33.8,2.7c-5.7,1.9 -18.1,4.3 -33.8,4.3s-28.1,-2.4 -33.8,-4.3c4.6,-1.2 13.4,-2.4 25.9,-2.7zm23.8,97.9l-32.1,0c-11.7,0 -21.2,-9.5 -21.2,-21.2l0,-69.7c2,0.8 4.8,1.7 9,2.6c4.8,1 14.9,2.7 28.5,2.7s23.6,-1.7 28.5,-2.7c3.9,-0.8 6.7,-1.7 8.7,-2.5l0,69.5c-0.2,11.8 -9.7,21.3 -21.4,21.3zm43,-41.5c0,10.3 -7.3,18.6 -16.3,18.9l0,-6.1c5.7,-0.3 10.2,-6 10.2,-12.9l0,-19c0,-6.9 -4.5,-12.5 -10.2,-12.9l0,-6c9,0.3 16.3,8.7 16.3,18.9l0,19.1z" id="svg_124"/>
   <path fill="#f0f5f9" d="m1147.54529,812.39931c1.2,-0.8 1.6,-2.5 0.7,-3.8c-0.8,-1.2 -2.5,-1.6 -3.8,-0.7c-1.4,0.9 -2.8,2.6 -3.5,4c-1.6,3.3 -1.5,7.4 0.4,12c0.5,1.1 1,2.2 1.5,3.3c0.9,1.9 1.8,3.7 2.2,5.5c0.5,2.2 0.3,5.1 -1.4,6.4c-1.2,0.9 -1.4,2.6 -0.5,3.8c0.5,0.7 1.4,1.1 2.2,1.1c0.6,0 1.1,-0.2 1.6,-0.5c3.3,-2.5 4.6,-7.2 3.4,-12c-0.6,-2.4 -1.6,-4.6 -2.6,-6.6c-0.5,-1 -1,-2 -1.4,-3c-0.9,-2.1 -1.7,-5.2 -0.6,-7.5c0.4,-0.6 1.2,-1.5 1.8,-2z" id="svg_125"/>
   <path fill="#f0f5f9" d="m1087.74529,513.39931l130.3,0c6.1,0 11.1,-5 11.1,-11.1l0,-18.6l7.9,0c5.9,0 10.7,-4.8 10.7,-10.7l0,-77.4c0,-5.9 -4.8,-10.7 -10.7,-10.7l-131.2,0c-5.9,0 -10.7,4.8 -10.7,10.7l0,19l-7.4,0c-6.1,0 -11.1,5 -11.1,11.1l0,4l0,24.4l0,48.1c0,6.3 5,11.2 11.1,11.2zm135.9,-64.6l-141.6,0l0,-13.5l141.6,0l0,13.5zm-117.8,-58.4l131.1,0c2.9,0 5.2,2.3 5.2,5.2l0,5.4l-141.5,0l0,-5.4c0,-2.8 2.3,-5.2 5.2,-5.2zm-5.2,16.1l141.6,0l0,66.6c0,2.9 -2.3,5.2 -5.2,5.2l-8,0l0,-24.1l0,-24.4l0,-4c0,-6.1 -5,-11.1 -11.1,-11.1l-117.3,0l0,-8.2zm-18.6,19.3c0,-3.1 2.5,-5.6 5.6,-5.6l130.4,0c3.1,0 5.6,2.5 5.6,5.6l0,4l-141.6,0l0,-4zm141.6,28.4l0,25.2c-0.3,0.5 -0.5,1 -0.5,1.6s0.2,1.2 0.5,1.6l0,19.7c0,3.1 -2.5,5.6 -5.6,5.6l-130.3,0c-3.1,0 -5.6,-2.5 -5.6,-5.6l0,-48.1l141.5,0z" id="svg_126"/>
   <path fill="#f0f5f9" d="m1094.54529,477.59931l75,0c3.2,0 5.8,-2.6 5.8,-5.8l0,-2c0,-3.2 -2.6,-5.8 -5.8,-5.8l-75,0c-3.2,0 -5.8,2.6 -5.8,5.8l0,2c0,3.2 2.6,5.8 5.8,5.8zm-0.4,-7.8c0,-0.2 0.2,-0.4 0.4,-0.4l75,0c0.2,0 0.4,0.2 0.4,0.4l0,2c0,0.2 -0.2,0.4 -0.4,0.4l-75,0c-0.2,0 -0.4,-0.2 -0.4,-0.4l0,-2z" id="svg_127"/>
   <path fill="#f0f5f9" d="m1190.34529,481.49931c2.9,0 5.6,-1.1 7.7,-3c2.1,1.9 4.8,3 7.6,3c3,0 5.8,-1.2 7.9,-3.3c2.1,-2.1 3.3,-4.9 3.3,-7.9c0,-3 -1.2,-5.8 -3.3,-7.9c-2.1,-2.1 -4.9,-3.3 -7.9,-3.3c-2.9,0 -5.6,1.1 -7.6,3c-2,-1.9 -4.7,-3 -7.7,-3c-6.2,0 -11.2,5 -11.2,11.2c0,6.2 5,11.2 11.2,11.2zm10.1,-13.7c0.3,-0.6 0.7,-1.1 1.1,-1.6c1.1,-1.1 2.5,-1.7 4.1,-1.7s3,0.6 4.1,1.7c1.1,1.1 1.7,2.5 1.7,4.1c0,1.5 -0.6,3 -1.7,4.1c-1.1,1.1 -2.5,1.7 -4.1,1.7s-3,-0.6 -4.1,-1.7c-0.4,-0.4 -0.8,-1 -1.1,-1.6l-1.2,-2.5l1.2,-2.5zm-10.1,-3.3c2.2,0 4.2,1.3 5.2,3.3l1.2,2.5l-1.2,2.5c-1,2 -3,3.3 -5.2,3.3c-3.2,0 -5.8,-2.6 -5.8,-5.8s2.6,-5.8 5.8,-5.8z" id="svg_128"/>
   <path fill="#f0f5f9" d="m482.84529,371.69931l15.9,-15.9c6.1,3.9 12.8,6.7 20,8.3l0,22.5l26.4,0l0,-22.6c7.1,-1.6 13.8,-4.3 20,-8.3l15.9,15.9l18.7,-18.7l-15.9,-15.9c3.9,-6.1 6.7,-12.9 8.3,-20l22.5,0l0,-26.4l-22.6,0c-1.6,-7.1 -4.3,-13.8 -8.3,-20l15.9,-15.9l-18.6,-18.6l-15.9,15.9c-6.1,-3.9 -12.9,-6.7 -20,-8.3l0,-22.5l-26.4,0l0,22.5c-7.1,1.6 -13.8,4.3 -20,8.3l-15.9,-15.9l-18.7,18.7l15.9,15.9c-3.9,6.1 -6.7,12.8 -8.3,20l-22.5,0l0,26.4l22.5,0c1.6,7.1 4.3,13.8 8.3,20l-15.9,15.9l18.7,18.7zm3,-35.8c-4.6,-6.6 -7.7,-14 -9.1,-22l-0.4,-2.2l-21.6,0l0,-15.5l21.6,0l0.4,-2.2c1.4,-7.9 4.5,-15.3 9.1,-22l1.3,-1.9l-15.3,-15.3l11,-11l15.3,15.3l1.9,-1.3c6.6,-4.6 14,-7.7 22,-9.1l2.2,-0.4l0,-21.6l15.5,0l0,21.6l2.2,0.4c7.9,1.4 15.3,4.5 22,9.1l1.9,1.3l15.3,-15.3l11,11l-15.4,15.2l1.3,1.9c4.6,6.6 7.7,14 9.1,22l0.4,2.2l21.6,0l0,15.5l-21.6,0l-0.4,2.2c-1.4,7.9 -4.5,15.3 -9.1,22l-1.3,1.9l15.3,15.3l-11,11l-15.3,-15.3l-1.9,1.3c-6.6,4.6 -14,7.7 -22,9.1l-2.2,0.4l0,21.6l-15.5,0l0,-21.6l-2.2,-0.4c-7.9,-1.4 -15.3,-4.5 -22,-9.1l-1.9,-1.3l-15.2,15.3l-11,-11l15.3,-15.3l-1.3,-1.8z" id="svg_129"/>
   <path fill="#f0f5f9" d="m1257.74529,872.79931c-11.6,0 -21.1,9.5 -21.1,21.1s9.5,21.1 21.1,21.1s21.1,-9.5 21.1,-21.1s-9.5,-21.1 -21.1,-21.1zm0,36.7c-8.6,0 -15.6,-7 -15.6,-15.6c0,-8.6 7,-15.6 15.6,-15.6c8.6,0 15.6,7 15.6,15.6c0,8.6 -7,15.6 -15.6,15.6z" id="svg_130"/>
   <path fill="#f0f5f9" d="m1439.34529,650.99931c-7.2,0 -13,5.9 -13,13c0,7.2 5.9,13 13,13c7.2,0 13,-5.9 13,-13c0,-7.1 -5.8,-13 -13,-13zm0,20.7c-4.2,0 -7.6,-3.4 -7.6,-7.6s3.4,-7.6 7.6,-7.6c4.2,0 7.6,3.4 7.6,7.6s-3.4,7.6 -7.6,7.6z" id="svg_131"/>
   <path fill="#f0f5f9" d="m1365.14529,785.39931c-7.2,0 -13,5.9 -13,13s5.9,13 13,13s13,-5.8 13,-13s-5.8,-13 -13,-13zm0,20.6c-4.2,0 -7.6,-3.4 -7.6,-7.6c0,-4.2 3.4,-7.6 7.6,-7.6s7.6,3.4 7.6,7.6c0,4.2 -3.4,7.6 -7.6,7.6z" id="svg_132"/>
   <path fill="#f0f5f9" d="m1466.04529,468.69931c-11.6,0 -21.1,9.5 -21.1,21.1s9.5,21.1 21.1,21.1s21.1,-9.5 21.1,-21.1s-9.5,-21.1 -21.1,-21.1zm0,36.7c-8.6,0 -15.6,-7 -15.6,-15.6c0,-8.6 7,-15.6 15.6,-15.6s15.6,7 15.6,15.6c0,8.6 -7,15.6 -15.6,15.6z" id="svg_133"/>
   <path fill="#f0f5f9" d="m1203.44529,56.79931c11.6,0 21.1,-9.5 21.1,-21.1s-9.5,-21.1 -21.1,-21.1s-21.1,9.5 -21.1,21.1s9.5,21.1 21.1,21.1zm0,-36.7c8.6,0 15.6,7 15.6,15.6s-7,15.6 -15.6,15.6c-8.6,0 -15.6,-7 -15.6,-15.6s7,-15.6 15.6,-15.6z" id="svg_134"/>
   <path fill="#f0f5f9" d="m773.44529,-5.00069c1.4,2.3 2.2,5.1 2.2,8c0,8.6 -7,15.6 -15.6,15.6c-8.6,0 -15.6,-7 -15.6,-15.6c0,-2.9 0.8,-5.6 2.2,-8l-6.1,0c-1,2.5 -1.6,5.2 -1.6,8c0,11.6 9.5,21.1 21.1,21.1s21.1,-9.5 21.1,-21.1c0,-2.8 -0.6,-5.5 -1.6,-8l-6.1,0z" id="svg_135"/>
   <path fill="#f0f5f9" d="m1080.84529,257.19931c0,-8.6 -7,-15.6 -15.6,-15.6s-15.6,7 -15.6,15.6s7,15.6 15.6,15.6s15.6,-7 15.6,-15.6zm-25.8,0c0,-5.6 4.6,-10.2 10.2,-10.2s10.2,4.6 10.2,10.2s-4.6,10.2 -10.2,10.2s-10.2,-4.6 -10.2,-10.2z" id="svg_136"/>
   <path fill="#f0f5f9" d="m1042.64529,670.69931c0,8.6 7,15.6 15.6,15.6s15.6,-7 15.6,-15.6s-7,-15.6 -15.6,-15.6s-15.6,7 -15.6,15.6zm15.6,-10.1c5.6,0 10.2,4.6 10.2,10.2c0,5.6 -4.6,10.2 -10.2,10.2c-5.6,0 -10.2,-4.6 -10.2,-10.2c0.1,-5.7 4.6,-10.2 10.2,-10.2z" id="svg_137"/>
   <path fill="#f0f5f9" d="m1386.44529,222.99931c8.6,0 15.6,-7 15.6,-15.6s-7,-15.6 -15.6,-15.6c-8.6,0 -15.6,7 -15.6,15.6s7,15.6 15.6,15.6zm0,-25.7c5.6,0 10.2,4.6 10.2,10.2c0,5.6 -4.6,10.2 -10.2,10.2c-5.6,0 -10.2,-4.6 -10.2,-10.2c0,-5.7 4.6,-10.2 10.2,-10.2z" id="svg_138"/>
   <path fill="#f0f5f9" d="m601.14529,119.59931c11.6,0 21.1,-9.5 21.1,-21.1c0,-11.6 -9.5,-21.1 -21.1,-21.1s-21.1,9.5 -21.1,21.1c0.1,11.6 9.5,21.1 21.1,21.1zm0,-36.8c8.6,0 15.6,7 15.6,15.6c0,8.6 -7,15.6 -15.6,15.6s-15.6,-7 -15.6,-15.6c0,-8.5 7,-15.6 15.6,-15.6z" id="svg_139"/>
   <path fill="#f0f5f9" d="m497.94529,729.79931c-11.6,0 -21.1,9.5 -21.1,21.1s9.5,21.1 21.1,21.1s21.1,-9.5 21.1,-21.1s-9.5,-21.1 -21.1,-21.1zm0,36.7c-8.6,0 -15.6,-7 -15.6,-15.6c0,-8.6 7,-15.6 15.6,-15.6c8.6,0 15.6,7 15.6,15.6c0,8.6 -7,15.6 -15.6,15.6z" id="svg_140"/>
   <path fill="#f0f5f9" d="m531.94529,348.49931c24.6,0 44.6,-20 44.6,-44.6c0,-24.6 -20,-44.6 -44.6,-44.6c-24.6,0 -44.6,20 -44.6,44.6c0,24.6 20,44.6 44.6,44.6zm0,-83.8c21.6,0 39.2,17.6 39.2,39.2c0,21.6 -17.6,39.2 -39.2,39.2c-21.6,0 -39.2,-17.6 -39.2,-39.2c0,-21.6 17.6,-39.2 39.2,-39.2z" id="svg_141"/>
   <path fill="#f0f5f9" d="m519.84529,321.79931c2.7,1.3 6.1,2 9.8,2l0,4.4c0,1.5 1.2,2.7 2.7,2.7s2.7,-1.2 2.7,-2.7l0,-5c0.2,-0.1 0.5,-0.1 0.7,-0.1c1.9,-0.5 3.6,-1.2 5,-2.1c1.4,-1 2.6,-2.2 3.4,-3.6c0.8,-1.4 1.2,-3 1.2,-4.8c0,-1.5 -0.2,-2.8 -0.7,-3.9c-0.5,-1.1 -1.3,-2.1 -2.3,-3.1c-1,-0.9 -2.2,-1.7 -3.7,-2.4c-1,-0.5 -2.2,-1 -3.6,-1.6l0,-12.9c1.6,0.2 3.1,0.5 4.6,1c0.4,0.1 0.7,0.2 1.1,0.2c1.7,0 3,-1.3 3,-2.8c0,-1.2 -0.8,-2.2 -1.9,-2.7c-2,-0.7 -4.3,-1.1 -6.8,-1.2l0,-3.6c0,-1.5 -1.2,-2.7 -2.7,-2.7s-2.7,1.2 -2.7,2.7l0,4c-0.5,0.1 -1,0.2 -1.5,0.3c-1.8,0.5 -3.4,1.2 -4.8,2.2c-1.4,1 -2.6,2.1 -3.4,3.5c-0.9,1.4 -1.3,3 -1.3,4.8c0,1.4 0.2,2.7 0.7,3.8c0.5,1.1 1.2,2.2 2.1,3.1c0.9,0.9 2.1,1.8 3.5,2.5c1.3,0.7 2.9,1.4 4.7,2.1l0,12.5c-0.7,0 -1.4,-0.1 -2.1,-0.2c-0.9,-0.2 -1.9,-0.4 -2.8,-0.7c-0.8,-0.3 -1.9,-0.6 -2.3,-0.7c-1.4,-0.7 -4,0.3 -4,2.1l0,0.9c0.1,0.8 0.6,1.6 1.4,2zm9.7,-22.5c-1,-0.5 -1.9,-1 -2.5,-1.5c-0.6,-0.5 -1,-1 -1.3,-1.6c-0.3,-0.6 -0.4,-1.3 -0.4,-2.1c0,-0.8 0.2,-1.5 0.5,-2.1c0.4,-0.7 0.9,-1.2 1.5,-1.7c0.6,-0.4 1.4,-0.8 2.3,-1.1l0,10.3c0,-0.2 -0.1,-0.2 -0.1,-0.2zm5.6,8.8c0.5,0.3 1,0.6 1.4,0.9c0.7,0.5 1.3,1.1 1.7,1.7c0.4,0.6 0.5,1.3 0.5,2.1c0,2.5 -1.2,4.1 -3.6,4.9l0,-9.6z" id="svg_142"/>
   <path fill="#f0f5f9" d="m1446.14529,629.29931l0,-85.5l-32.2,-28.1l2.4,-2.7c1.6,-1.8 2,-4.3 1,-6.6c-1,-2.2 -3.1,-3.6 -5.6,-3.6l-12.9,0l0,-38.8c0,-3.5 -2.9,-6.4 -6.4,-6.4l-23.2,0c-3.5,0 -6.4,2.9 -6.4,6.4l0,38.9l-12,0.3c-2.5,0.1 -4.7,1.5 -5.7,3.9c-1,2.3 -0.6,4.9 1.1,6.8l1.8,2l-31.8,27.9l0,85.5l129.9,0zm-124.5,-78.2l40.6,36.7l-40.6,31.3l0,-68zm59.5,29.1l54.5,43.7l-111.3,0l56.8,-43.7zm20.4,9.4l39.1,-38.1l0,69.4l-39.1,-31.3zm-51.4,-80.4c0.1,-0.2 0.3,-0.6 0.9,-0.6l17.3,-0.5l0,-44.1c0,-0.5 0.4,-1 1,-1l23.2,0c0.5,0 1,0.4 1,1l0,44.2l18.4,0c0.3,0 0.5,0.1 0.6,0.4s0.1,0.5 -0.1,0.7l-4.2,4.8c0,0 0,0 0,0c0,0 0,0 0,0l-27.2,30.5l-26.9,-30.3c0,0 0,0 0,0c0,0 0,0 0,0l-3.6,-4.1c-0.6,-0.4 -0.5,-0.8 -0.4,-1zm26.2,38.5l-19.8,0c-1.5,0 -2.7,1.2 -2.7,2.7c0,1.5 1.2,2.7 2.7,2.7l33.7,0c1.5,0 2.7,-1.2 2.7,-2.7c0,-1.5 -1.2,-2.7 -2.7,-2.7l-4.9,0l25,-28l29.1,25.4l-42.1,41l-16.1,-12.9l-14.5,11.2l-43.7,-39.4l28.6,-25.1l24.7,27.8z" id="svg_143"/>
   <path fill="#f0f5f9" d="m1397.54529,553.19931l4.9,0c1.5,0 2.7,-1.2 2.7,-2.7c0,-1.5 -1.2,-2.7 -2.7,-2.7l-4.9,0c-1.5,0 -2.7,1.2 -2.7,2.7c-0.1,1.5 1.2,2.7 2.7,2.7z" id="svg_144"/>
   <path fill="#f0f5f9" d="m538.64529,159.69931l0,0c1.5,0.2 2.8,-0.9 3,-2.3l0.8,-6.3l16.1,22.4c-1.1,1.6 -1.8,3.5 -1.8,5.5c0,5.2 4.2,9.5 9.5,9.5s9.5,-4.2 9.5,-9.5c0,-1 -0.2,-2 -0.5,-2.9l12.9,-7.1c1.7,2.2 4.4,3.6 7.4,3.6c1.5,0 3,-0.4 4.2,-1c4.4,5.8 10.5,15.2 13.3,19.5c0.8,1.2 2.5,1.6 3.7,0.8l0,0c1.3,-0.8 1.6,-2.5 0.8,-3.7c-2.9,-4.4 -9.3,-14.3 -13.9,-20.3c0.8,-1.4 1.3,-3 1.3,-4.7c0,-5.2 -4.2,-9.5 -9.5,-9.5c-5.2,0 -9.5,4.2 -9.5,9.5c0,0.3 0,0.6 0,0.9l-13.9,7.7c-1.6,-1.3 -3.7,-2.1 -5.9,-2.1c-1.2,0 -2.3,0.2 -3.4,0.6l-15.7,-22.2l6.1,1.5c1.4,0.4 2.9,-0.5 3.3,-2c0.4,-1.4 -0.5,-2.9 -2,-3.3l-16,-4l-2.1,16.3c-0.2,1.5 0.9,2.9 2.3,3.1zm56.9,-0.8c2.2,0 4.1,1.8 4.1,4.1c0,2.2 -1.8,4.1 -4.1,4.1c-2.2,0 -4.1,-1.8 -4.1,-4.1c0,-2.2 1.8,-4.1 4.1,-4.1zm-25.2,20.1c0,2.2 -1.8,4.1 -4.1,4.1c-2.2,0 -4.1,-1.8 -4.1,-4.1c0,-2.2 1.8,-4.1 4.1,-4.1c2.3,0 4.1,1.8 4.1,4.1z" id="svg_145"/>
   <path fill="#f0f5f9" d="m547.54529,204.69931l0,0c0,1.5 1.2,2.7 2.7,2.7l81.8,0l0,-78.1c0,-1.5 -1.2,-2.7 -2.7,-2.7s-2.7,1.2 -2.7,2.7l0,72.7l-76.5,0c-1.4,0 -2.6,1.2 -2.6,2.7z" id="svg_146"/>
   <path fill="#f0f5f9" d="m826.24529,886.69931l-24.8,0l-7.9,-20.2c-0.5,-1.3 -1.8,-2.2 -3.1,-2.2l-44.5,0c-1.4,0 -2.7,0.9 -3.2,2.2l-7.3,20.2l-25.7,0c-3.9,0 -7.2,3.2 -7.2,7.2l0,66.9c0,3.9 3.2,7.2 7.2,7.2l116.5,0c3.9,0 7.2,-3.2 7.2,-7.2l0,-66.9c-0.1,-4 -3.3,-7.2 -7.2,-7.2zm-78.9,-17l41.7,0l6.6,16.9l-4.6,0l-4.2,-11c-0.5,-1.3 -1.7,-2.1 -3.1,-2.1l-30.6,0c-1.4,0 -2.6,0.9 -3.1,2.2l-4.1,11l-4.8,0l6.2,-17zm37.9,17l-33.4,0l2.9,-7.7l27.6,0l2.9,7.7zm42.7,74c0,0.9 -0.8,1.7 -1.7,1.7l-116.5,0c-0.9,0 -1.7,-0.8 -1.7,-1.7l0,-66.9c0,-0.9 0.8,-1.7 1.7,-1.7l27.6,0c0,0 0,0 0,0c0,0 0,0 0,0l10.5,0c0,0 0,0 0,0c0,0 0,0 0,0l78.3,0c0.9,0 1.7,0.8 1.7,1.7l0,66.9l0.1,0z" id="svg_147"/>
   <path fill="#f0f5f9" d="m1413.84529,679.49931l-23.3,-26.3l-58.5,0l0,107.6l82.8,0l0,-80.2l-0.4,-0.5c-0.3,-0.3 -0.4,-0.5 -0.6,-0.6zm-21.8,-16.5l13.9,15.7l-13.9,0l0,-15.7zm-54.6,92.3l0,-96.7l49.1,0l0,25.6l22.7,0l0,71.1l-71.8,0z" id="svg_148"/>
   <path fill="#f0f5f9" d="m1395.74529,698.99931l-35.2,0c-1.5,0 -2.7,1.2 -2.7,2.7s1.2,2.7 2.7,2.7l35.2,0c1.5,0 2.7,-1.2 2.7,-2.7s-1.2,-2.7 -2.7,-2.7z" id="svg_149"/>
   <path fill="#f0f5f9" d="m1395.74529,715.29931l-35.2,0c-1.5,0 -2.7,1.2 -2.7,2.7c0,1.5 1.2,2.7 2.7,2.7l35.2,0c1.5,0 2.7,-1.2 2.7,-2.7c0.1,-1.5 -1.2,-2.7 -2.7,-2.7z" id="svg_150"/>
   <path fill="#f0f5f9" d="m1395.74529,731.09931l-35.2,0c-1.5,0 -2.7,1.2 -2.7,2.7s1.2,2.7 2.7,2.7l35.2,0c1.5,0 2.7,-1.2 2.7,-2.7s-1.2,-2.7 -2.7,-2.7z" id="svg_151"/>
   <path fill="#f0f5f9" d="m1354.74529,698.99931l-6.2,0c-1.5,0 -2.7,1.2 -2.7,2.7s1.2,2.7 2.7,2.7l6.2,0c1.5,0 2.7,-1.2 2.7,-2.7s-1.2,-2.7 -2.7,-2.7z" id="svg_152"/>
   <path fill="#f0f5f9" d="m1354.74529,715.29931l-6.2,0c-1.5,0 -2.7,1.2 -2.7,2.7c0,1.5 1.2,2.7 2.7,2.7l6.2,0c1.5,0 2.7,-1.2 2.7,-2.7c0.1,-1.5 -1.2,-2.7 -2.7,-2.7z" id="svg_153"/>
   <path fill="#f0f5f9" d="m1354.74529,731.09931l-6.2,0c-1.5,0 -2.7,1.2 -2.7,2.7s1.2,2.7 2.7,2.7l6.2,0c1.5,0 2.7,-1.2 2.7,-2.7s-1.2,-2.7 -2.7,-2.7z" id="svg_154"/>
   <path fill="#f0f5f9" d="m1385.94529,237.49931l-10,11l-40,0l0,12.3l-8.9,0l4.7,52.5l57.3,0c4.1,7.3 11.9,12.2 20.9,12.2c13.2,0 23.9,-10.7 23.9,-23.9c0,-4.7 -1.4,-9.1 -3.7,-12.8l4.3,-5.2c1,-1.2 0.8,-2.9 -0.4,-3.8c-1.2,-1 -2.9,-0.8 -3.8,0.4l-3.6,4.4c-0.8,-0.8 -1.7,-1.5 -2.6,-2.2l2.1,-21.6l-9.1,0l0,-23.3l-31.1,0zm-44.5,16.5l37,0l10,-11l23.2,0l0,17.8l-70.2,0l0,-6.8zm56.1,44.1l13.4,14.2l15.6,-18.9c1.3,2.5 2,5.3 2,8.3c0,10.2 -8.3,18.4 -18.4,18.4c-6.5,0 -12.2,-3.4 -15.5,-8.5c0.1,-0.3 0.2,-0.7 0.2,-1.1c0,-1.3 -0.9,-2.3 -2.1,-2.6c-0.6,-1.7 -1,-3.5 -1.1,-5.4c0,-0.3 0,-0.6 0,-0.9c0,-10.2 8.3,-18.4 18.4,-18.4c3.1,0 6.1,0.8 8.7,2.2c0.4,0.9 1.2,1.6 2.3,1.7c0.1,0 0.2,0 0.4,0c0.7,0.5 1.3,1.1 1.9,1.7l-12.6,15.3l-9.1,-9.7c-1,-1.1 -2.8,-1.2 -3.8,-0.1c-1.3,1 -1.3,2.7 -0.3,3.8zm21.4,-18.6c-2.8,-1.1 -5.8,-1.7 -8.9,-1.7c-13.2,0 -23.9,10.7 -23.9,23.9c0,0.4 0,0.7 0,1.1c0.1,1.8 0.4,3.5 0.8,5.1l-50.1,0l-3.7,-41.6l87.1,0l-1.3,13.2z" id="svg_155"/>
   <path fill="#f0f5f9" d="m453.64529,503.09931c0,0 0,0 0,0l0,-0.7l-0.2,-5.1l0,0l-0.1,-3.5c-0.1,-4.3 -1.9,-8.3 -5.1,-11.3c-3.1,-3 -7.2,-4.5 -11.5,-4.4l-3.8,0.1c-4.3,0.1 -8.3,1.9 -11.3,5.1c-3,3.1 -4.5,7.2 -4.4,11.5l0.2,5.9l3.9,131.3l0.5,0l11.6,23.3l0.1,0.2c1.4,2.4 3.8,3.8 6.4,3.8c0.1,0 0.1,0 0.2,0c2.7,-0.1 5.1,-1.6 6.4,-4.2l10.3,-24.1l0.5,0l-3.7,-127.9zm-30.4,8.7l2.2,-0.1l3.4,114.7l-2.2,0.1l-3.4,-114.7zm-0.3,-8.1l25.2,-0.8l0,0.4c0,0 0,0 0,0l0.1,2.3l-25.2,0.8l-0.1,-2.7zm11.4,122.6l-3.4,-114.7l17.5,-0.5l3.4,114.7l-17.5,0.5zm-8.7,-139.2c2,-2.1 4.6,-3.3 7.5,-3.4l3.8,-0.1c2.9,-0.1 5.6,0.9 7.6,2.9c2.1,2 3.3,4.6 3.4,7.5l0.1,3.5l-25.2,0.8l-0.1,-3.5c-0.1,-2.9 0.9,-5.6 2.9,-7.7zm14.4,166.8c-0.7,0.1 -1.3,-0.4 -1.8,-1.1l-2.3,-4.5l7.7,-0.2l-2,4.7c-0.3,0.6 -0.9,1.1 -1.6,1.1zm6.1,-11.4l-12.7,0.4l-5.5,-11l23,-0.7l-4.8,11.3z" id="svg_156"/>
  </g>
 </g>
</svg>